<?xml version="1.0" standalone="no"?>
<!DOCTYPE svg PUBLIC "-//W3C//DTD SVG 1.1//EN" "http://www.w3.org/Graphics/SVG/1.1/DTD/svg11.dtd">
<svg xmlns="http://www.w3.org/2000/svg">
<metadata>creativebythesea</metadata>
<defs>
<font id="fontello" horiz-adv-x="1000" >
<font-face font-family="fontello" font-weight="400" font-stretch="normal" units-per-em="1000" ascent="850" descent="-150" />
<missing-glyph horiz-adv-x="1000" />
<glyph glyph-name="icon-01-surface" unicode="&#xe800;" d="m203-136c0-8-6-14-11-14h-6c-11 0-19 0-30 3-9 0-12 8-12 16 0 9 9 12 17 12 8-3 17-3 25-3 8 0 17-6 17-14z m-189 539c8 0 14 5 14 14v27c0 9-6 14-14 14-8 0-14-5-14-14v-27c0-6 6-14 14-14z m0 83c8 0 14 6 14 14v28c0 8-6 14-14 14-8 0-14-6-14-14v-28c0-8 6-14 14-14z m0-244c8 0 14 5 14 14v27c0 6-6 11-14 11-8 0-14-5-14-13v-28c0-6 6-11 14-11z m0 325c8 0 14 5 14 14v27c0 9-6 14-14 14-8 0-14-5-14-14v-27c0-9 6-14 14-14z m14-556c0 8 0 17 0 25 0 8-6 14-14 14 0 0 0 0 0 0-8 0-14-6-14-14 0-11 0-19 3-28 0-5 5-11 14-11 0 0 2 0 2 0 6 0 12 6 9 14z m55 778c3 0 6 0 9 3 5 5 14 8 22 14 5 2 8 11 5 16-2 9-11 11-19 6-8-3-17-9-25-14-6-6-6-14-3-20 3-2 9-5 11-5z m-69-631c8 0 14 6 14 14v28c0 8-6 14-14 14-8 0-14-6-14-14v-28c0-8 6-14 14-14z m100-264c-8 3-14 9-22 14-6 6-14 3-20-2-5-6-3-14 3-20 8-5 17-11 25-17 3 0 3-2 6-2 5 0 8 2 11 8 8 8 5 17-3 19z m-100 184c8 0 14 5 14 14v27c0 9-6 14-14 14-8 0-14-5-14-14v-27c0-9 6-14 14-14z m30-114c-2 5-11 8-19 5-6-2-8-11-6-19 6-8 9-17 17-25 3-3 6-6 11-6 3 0 6 0 9 3 5 6 8 14 2 20-5 8-11 14-14 22z m-30 358c8 0 14 6 14 14v28c0 5-6 14-14 14-8 0-14-9-14-14v-28c0-8 6-14 14-14z m633 500h28c8 0 14 6 14 14 0 8-6 14-14 14h-28c-8 0-14-6-14-14 3-8 9-14 14-14z m84 0h27c9 0 14 6 14 14 0 8-5 14-14 14h-27c-9 0-14-6-14-14 0-8 5-14 14-14z m-717-172c8 0 14 6 14 14 0 8 0 17 0 22 0 8-3 14-11 17-9 0-14-3-17-11 0-9 0-20 0-28v0c0-8 6-14 14-14z m958 39c0-8 0-17 0-25 0-8 6-14 14-14 0 0 0 0 0 0 8 0 14 6 14 14 0 11 0 19-3 28 0 8-8 11-16 11-6 0-12-6-9-14z m-158 133c8 0 17 0 25-3 0 0 0 0 3 0 5 0 11 6 14 12 0 8-3 13-12 16-13 3-22 3-30 3h0c-8 0-14-6-14-14 0-8 6-14 14-14z m-328 0h28c8 0 14 6 14 14 0 8-6 14-14 14h-28c-8 0-14-6-14-14 0-8 6-14 14-14z m81 0h27c9 0 14 6 14 14 0 8-5 14-14 14h-27c-9 0-14-6-14-14 0-8 5-14 14-14z m-542-94c3 0 3-3 6-3 5 0 8 3 11 8 2 9 8 14 14 23 5 5 2 13-3 19-6 6-14 3-17-3-5-8-11-16-17-25-2-5 0-14 6-19z m378 94h28c8 0 13 6 13 14 0 8-5 14-13 14h-28c-6 0-14-6-14-14 0-8 8-14 14-14z m-245-3c0 0 3 0 0 0 11 3 20 3 28 3 8 0 14 9 14 14s-6 14-14 14c0 0 0 0 0 0-11 0-19 0-30-3-9 0-12-8-12-16 3-6 9-12 14-12z m84 3h27c9 0 14 6 14 14-2 8-8 14-16 14h-28c-6 0-11-6-11-14 0-8 5-14 14-14z m80 0h28c8 0 14 6 14 14 0 8-6 14-14 14h-28c-8 0-14-6-14-14 0-8 6-14 14-14z m586-914c-5-5-14-8-22-14-5-2-8-11-5-19 2-6 8-8 11-8 2 0 5 0 5 2 9 6 17 12 25 17 6 6 9 14 3 20-3 5-11 8-17 2z m78 142c-8 0-14-6-14-14 0-8 0-17-3-22 0-8 3-14 12-14 0 0 0 0 2 0 6 0 11 6 14 11 0 8 3 20 3 28v3c0 5-6 8-14 8z m-103 756c9-3 14-9 23-14 2-3 5-3 8-3 5 0 8 3 11 5 6 6 3 14-3 20-8 5-16 11-25 14-5 3-14 0-19-6-3-5 0-14 5-16z m103-589c-8 0-14-6-14-14v-28c0-8 6-14 14-14 8 0 14 6 14 14v28c0 5-6 14-14 14z m-11-245c-6 3-14 0-19-5-3-9-9-14-14-23-6-5-3-13 2-19 3-3 6-3 9-3 5 0 8 3 11 6 5 8 11 16 14 25 5 8 3 16-3 19z m-19 764c2-5 8-8 11-8 2 0 5 0 5 3 6 2 9 11 6 19-6 8-11 17-17 25-5 6-14 8-19 3-6-6-9-14-3-20 8-8 11-14 17-22z m30-603c-8 0-14-5-14-14v-27c0-9 6-14 14-14 8 0 14 5 14 14v27c0 9-6 14-14 14z m0 492c-8 0-14-6-14-14v-28c0-8 6-14 14-14 8 0 14 6 14 14v28c0 6-6 14-14 14z m0-83c-8 0-14-6-14-14v-28c0-8 6-14 14-14 8 0 14 6 14 14v28c0 8-6 14-14 14z m0-81c-8 0-14-5-14-14v-28c0-8 6-13 14-13 8 0 14 5 14 13v28c0 9-6 14-14 14z m0-164c-8 0-14-5-14-14v-27c0-9 6-14 14-14 8 0 14 5 14 14v27c0 9-6 14-14 14z m0 81c-8 0-14-6-14-14v-28c0-8 6-14 14-14 8 0 14 6 14 14v28c0 8-6 14-14 14z m-308-500h-28c-8 0-14-6-14-14 0-8 6-14 14-14h28c8 0 14 6 14 14 0 8-6 14-14 14z m-81 0h-28c-8 0-13-6-13-14 0-8 5-14 13-14h28c9 0 14 6 14 14 0 8-5 14-14 14z m-325 0h-28c-8 0-13-6-13-14 0-8 5-14 13-14h28c9 0 14 6 14 14-3 8-8 14-14 14z m489 0h-28c-8 0-14-6-14-14 0-8 6-14 14-14h28c8 0 14 6 14 14 0 8-6 14-14 14z m-328 0h-27c-9 0-14-6-14-14 0-8 5-14 14-14h27c9 0 14 6 14 14 0 8-5 14-14 14z m84 0h-28c-8 0-14-6-14-14 0-8 6-14 14-14h28c8 0 14 6 14 14 0 8-9 14-14 14z m322 3c-8-3-17-3-25-3-8 0-14-6-14-14 0-8 6-14 14-14 0 0 0 0 0 0 11 0 19 0 28 3 8 0 11 8 11 16 3 6-6 12-14 12z m-486-3h-28c-8 0-14-6-14-14 0-8 6-14 14-14h28c8 0 14 6 14 14 0 8-6 14-14 14z m514 786v-625c0-28-23-53-53-53h-628c-28 0-53 22-53 53v625c0 28 23 53 53 53h625c31 0 56-25 56-53z m-28 0c0 14-11 25-25 25h-628c-14 0-25-11-25-25v-625c0-14 11-25 25-25h625c14 0 25 11 25 25v625z m-83-50c-3 0-3 0-6 0h-139c-8 0-14-6-14-14 0-8 6-14 14-14h108l-191-192c-6-5-6-13 0-19 3-3 5-3 8-3 3 0 6 0 8 3l192 192v-106c0-8 6-14 14-14 8 0 14 6 14 14v139c0 3 0 3 0 6-3 2-6 5-8 8z m-300-292l-192-191v108c0 8-6 14-14 14-8 0-14-6-14-14v-139c0-3 0-3 0-6 0-2 3-5 8-8 3 0 3 0 6 0h139c8 0 14 6 14 14 0 8-6 14-14 14h-108l191 192c6 5 6 13 0 19-3 3-11 3-16-3z m308-222v139c0 8-6 14-14 14-8 0-14-6-14-14v-108l-192 191c-5 6-13 6-19 0-6-5-6-14 0-19l192-192h-106c-8 0-14-5-14-14 0-8 6-14 14-14h139c3 0 3 0 6 0 2 0 5 3 8 9 0 2 0 5 0 8z m-483 486h108c8 0 14 6 14 14 0 8-6 14-14 14h-139c-3 0-3 0-6 0-2 0-5-3-8-8 0-3 0-3 0-6v-139c0-8 6-14 14-14 8 0 14 6 14 14v108l192-191c2-3 5-3 8-3 3 0 5 0 8 3 6 5 6 14 0 19l-191 189z" horiz-adv-x="1000" />
<glyph glyph-name="icon-02-occupancy" unicode="&#xe801;" d="m636 664h-30l-59 33c0 0 0 0 0 0 22 14 36 39 36 70 0 47-39 83-83 83s-83-39-83-83c0-28 14-56 36-70 0 0 0 0 0 0l-59-33h-30c-25 0-45-20-45-42v-428c0-22 20-41 42-41 6 0 8 0 14 3v-250c0-31 25-56 56-56s55 25 55 56v338h28v-338c0-31 25-56 55-56s56 25 56 56v247c6-3 8-3 14-3 22 0 42 19 42 42v427c0 25-20 45-45 45z m-136 158c31 0 56-25 56-55s-25-56-56-56-56 25-56 56 25 55 56 55z m153-630c0-9-6-14-14-14-8 0-14 5-14 11v375l0 14h-28v-386c0-3 0-3 0-3v-283c0-14-11-28-28-28s-27 11-27 28v366h-84v-366c0-14-11-28-27-28s-28 11-28 28v658l0 14h-28v-386c0-9-6-14-14-14-8 0-14 5-14 14v427c0 9 6 17 17 17h39l66 36 3 3c3 3 9 6 14 8 0 0 0 0 0 0 6 0 11-2 17-2s11 0 16 2c0 0 0 0 0 0 6-2 9-5 14-8l70-39h39c8 0 16-5 16-17v-427z" horiz-adv-x="1000" />
<glyph glyph-name="icon-03-parking" unicode="&#xe802;" d="m500-147c-275 0-500 225-500 500s225 500 500 500 500-225 500-500-225-500-500-500z m0 972c-261 0-472-211-472-472s211-472 472-472 472 211 472 472-211 472-472 472z m-69-711v480c0 9-6 14-14 14s-11-8-11-14v-480c0-8 5-14 13-14s12 6 12 14z m219 333c0 89-72 159-158 159-9 0-14-6-14-14s5-14 14-14c72 0 130-59 130-131s-58-130-130-130c-9 0-14-6-14-14s5-14 14-14c86 0 158 72 158 158z" horiz-adv-x="1000" />
<glyph glyph-name="icon-05-handicaped" unicode="&#xe803;" d="m500 850c-275 0-500-225-500-500s225-500 500-500 500 225 500 500-225 500-500 500z m0-972c-261 0-472 211-472 472s211 472 472 472 472-211 472-472-211-472-472-472z m267 391c-3 6-11 9-20 6l-36-19-72 122c0 5-6 11-14 11h-117v19h134c8 0 14 6 14 14v39c0 8-6 14-14 14h-134v31c23 16 36 41 36 69 0 44-36 83-83 83s-83-36-83-83c0-28 14-56 39-69v-48c-70-25-114-89-114-161 0-94 78-172 172-172 64 0 122 36 153 92l8-11c0-3 0-3 3-6l22-39c3-3 6-5 8-5 0 0 3 0 3 0 3 0 6 0 6 2l105 61c6 3 9 12 6 20l-22 30z m-292-122c-81 0-144 64-144 145 0 58 36 111 88 133v-111c0-8 6-14 14-14h145l33-61c-22-56-75-92-136-92z m200 34l-14 22c0 3 0 3-3 5l-64 114c-2 6-5 6-11 6h-139v183c0 6-2 11-8 11-19 9-30 28-30 50 0 31 25 56 55 56s56-25 56-56c0-19-11-39-28-50-6-3-8-5-8-11v-50c0-8 5-14 13-14h134v-11h-134c-8 0-13-5-13-14v-47c0-8 5-14 13-14h123l77-136c3-3 6-6 9-6 3 0 8 0 11 3l36 20 8-14-83-47z" horiz-adv-x="1000" />
<glyph glyph-name="icon-06-no-handicaped" unicode="&#xe804;" d="m1000 350c0 133-53 253-139 344l122 123-19 19-120-125c-91 86-211 139-344 139-133 0-253-53-344-139l-123 125-19-19 125-123c-86-91-139-211-139-344 0-133 53-253 139-344l-122-123 19-19 120 125c88-86 211-139 344-139 133 0 253 53 344 139l123-122 19 19-122 122c83 89 136 209 136 342z m-28 0c0-125-50-239-130-325l-139 139 78 47c2 3 5 6 5 8 0 3 0 9-3 12l-22 38c-3 6-11 9-19 6l-36-19-67 122c0 5-6 11-14 11h-69l19 19h67c8 0 14 6 14 14v39c0 8-6 14-14 14l200 200c80-86 130-200 130-325z m-311-142l-64 111c-3 6-5 6-11 6h-42l-25 25 12 11h86l77-136c3-3 6-6 9-6 3 0 8 0 11 3l36 20 8-14-72-45-25 25z m-167 239h84l-11-11h-70c-8 0-14-5-14-14v-33l-39 33v89c0 6-2 11-8 11-19 9-30 28-30 50 0 31 25 56 55 56s56-25 56-56c0-19-11-39-28-50-6-3-8-5-8-11v-50c2-8 8-14 13-14z m137 0v-11h-25l11 11h14z m-173-119h-14v58l37-36-23-22z m42 3l3-3h-6l3 3z m8 58v19h31l-20-19h-11z m-89 22v-97c0-8 6-14 14-14l-80-81c-11 23-20 48-20 73 0 55 31 105 78 127l8-8z m50-111h62l75-75c-25-47-75-78-128-78-45 0-84 20-109 50l100 103z m100 0h9l11-19-20 19z m-69 522c125 0 239-50 325-130l-219-220h-95v31c22 16 36 41 36 69 0 45-36 84-83 84s-83-37-83-84c0-28 13-55 38-69v-47c0 0-2 0-2 0l-242 238c86 78 200 128 325 128z m-472-472c0 125 50 239 130 325l234-233c-53-31-86-86-86-150 0-34 11-67 27-92l-175-175c-80 86-130 200-130 325z m472-472c-125 0-239 50-325 130l172 173c31-37 78-59 128-59 61 0 119 34 150 86l11-11c0 0 0 0 0-3l22-38c3-6 9-6 11-6 3 0 6 0 6 3l3 0 144-145c-83-80-197-130-322-130z" horiz-adv-x="1000" />
<glyph glyph-name="icon-04-no-parking" unicode="&#xe805;" d="m1000 350c0 133-53 253-139 344l122 123-19 19-120-125c-91 86-211 139-344 139-133 0-253-53-344-139l-123 125-19-19 125-123c-86-91-139-211-139-344 0-133 53-253 136-344l-122-123 19-19 123 125c88-86 211-139 344-139 133 0 253 53 344 139l123-122 19 19-125 120c86 91 139 211 139 344z m-28 0c0-125-50-239-130-325l-278 278c50 28 86 80 86 141 0 12 0 23-3 34l197 197c78-86 128-200 128-325z m-350 94c0-52-33-100-78-119l-25 25 103 103c0-3 0-6 0-9z m-122 378c125 0 239-50 325-130l-186-186c-25 58-81 97-147 97-9 0-14-6-14-14s5-14 14-14c58 0 108-39 125-92l-117-114-69 70v150c0 8-6 14-14 14s-14-6-14-14v-125l-228 230c86 78 200 128 325 128z m-19-472l-50-50v97l50-47z m-453 0c0 125 50 239 130 325l248-247v-153l-248-247c-80 83-130 197-130 322z m472-472c-125 0-239 50-325 130l228 228v-125c0-8 5-14 14-14s14 6 14 14v153l69 69 14-14c-8-2-17-2-25-2-8 0-14-6-14-14 0-9 6-14 14-14 17 0 33 3 47 8l286-286c-83-83-197-133-322-133z" horiz-adv-x="1000" />
<glyph glyph-name="icon-07-smoker" unicode="&#xe806;" d="m0 164v-158h211 581v158h-581-211z m28-133v105h158v-105h-158z m736 105v-105h-553v105h553z m53-133h83v158h-83v-158z m27 133h31v-105h-31v105z m73 28v-158h83v158h-83z m55-133h-28v105h28v-105z m-175 275h-122c-69 0-128 58-128 127 0 3 0 6 0 9-64 5-114 61-114 127 0 70 59 128 128 128v-28c-55 0-100-44-100-100 0-55 45-100 100-100 0 0 3 0 6 0 2 0 5-2 8-5 3-3 3-6 3-11 0-6-3-11-3-20 0-55 44-100 100-100h122c39 0 70-30 70-69v-56h-28v56c0 22-20 42-42 42z m-122 319v28c69 0 128-59 128-128 0-25-6-47-20-67h67c69 0 128-58 128-127v-123h-28v123c0 55-44 100-100 100h-89l-8-3-9 5-5 9 8 8c20 19 31 44 31 72-3 56-47 103-103 103z" horiz-adv-x="1000" />
<glyph glyph-name="icon-08-no-smoker" unicode="&#xe807;" d="m792 114v158h-195l-78 78 87 86c19-14 44-22 69-22h122c25 0 45-20 45-45v-55h27v55c0 39-30 70-69 70h-122c-20 0-36 5-50 14l141 147c-5-17-13-31-25-42l-8-8 6-8 8-9 8 3h89c56 0 100-44 100-100v-122h28v122c0 70-58 128-128 128h-66c13 19 19 44 19 67 0 0 0 0 0 0l181 180-20 20-167-167c-13 53-63 94-122 94v-27c53 0 95-39 100-89l-172-173c-17 20-28 42-28 70 0 5 0 11 3 19 0 3 0 9-3 11-3 3-5 6-8 6 0 0-3 0-6 0-55 0-100 44-100 100 0 56 45 100 100 100v28c-69 0-127-59-127-128 0-67 50-119 113-128 0-3 0-5 0-8 0-36 14-67 37-89l-84-83-469 475-20-20 473-472-78-78h-192-211v-158h211 33l-236-236 20-20 255 256h436l237-236 19 19-217 217h34z m-28 133v-105h-36l-106 105h142z m-264 84l58-59h-116l58 59z m-472-192v105h158v-105h-158z m183 0v105h167l-106-105h-61z m97 0l106 105h169l106-105h-381z m509-25h83v158h-83v-158z m27 133h31v-105h-31v105z m73 25v-158h83v158h-83z m55-133h-28v105h28v-105z" horiz-adv-x="1000" />
<glyph glyph-name="icon-09-pets" unicode="&#xe808;" d="m906 492h-37c0 2-2 5-5 5l-83 84v41c0 17-12 28-28 28h-39c-17 0-28-11-28-28v-44l-80-81c-6-5-9-11-9-16l-361 366c-5 3-14 3-19 0-6-5-6-14 0-19l369-370c-5 0-14-2-17-5-86-67-208-72-208-72h-217l-22 108c-3 14-16 25-33 22-14-3-25-17-22-30 2-48 14-167 14-173v-405c0 0 0 0 0-3l0-22c0-17 11-28 27-28h67c8 0 17 3 22 8 6-5 14-8 22-8h67c17 0 28 11 28 28v22c0 14-11 28-28 28v230h20 69l133-47v-208c0 0 0 0 0-3l0-22c0-17 11-28 28-28h67c11 0 19 6 22 14 6-8 14-14 22-14h67c17 0 28 11 28 28v22c0 14-11 28-28 28v378c5 11 5 25-3 33l-108 108c-3 3-3 3-6 3 3 0 3 3 6 3 0 0 0 3 3 3l108-109c5-5 17-8 28-8 2 0 5 0 8 0l156 22c16 0 27 11 27 28v72c0 20-14 31-27 31z m-714-570c-3 3-9 3-14 3v231h3 11v-234z m80-22l14 0 0-22-69 0v280h41v-244l14-14z m353 19c-6 6-11 9-17 9v230h17v-239z m72 400l-3-11v-394l14-14 14 0v-22c0 0 0 0 0 0l-69 0v294l-17 11h-44l-14-14v-258l14-14 14 0 0-22-70 0v244l-8 14-145 50-77 0c0 0 0 0 0 0h-103-22-17l-14-14v-258l14-14 14 0 0-22-70 0v433c0 0 0 3-14 175l3 3 22-119 14-11 228 0c6 0 131 5 225 77l3 0 108-114z m53 50l-14 0-108 112 83 83 3 8 0 50 39 0v-44l3-9 100-102 0 0 47-48v-27l-153-23z m39 128c0-11-8-22-22-22s-23 11-23 22 12 22 23 22 22-11 22-22z" horiz-adv-x="1000" />
<glyph glyph-name="icon-10-no-pets" unicode="&#xe809;" d="m719 306c6 11 6 25-2 33l-100 100 5 5 97-97c6-5 17-8 28-8 3 0 6 0 9 0l155 22c17 0 28 11 28 28v72c0 17-11 28-28 28h-36c0 3-3 5-6 5l-83 84v30l206 206-20 19-191-191c-6 5-14 11-23 11h-39c-16 0-27-11-27-28v-44l-81-81c-5-6-8-11-8-17l-367 364c-5 3-14 3-19 0-6-5-6-14 0-19l369-370c-5 0-14-2-17-5-30-22-63-39-97-50l-439 436-19-17 428-428c-48-11-81-13-84-13h-214l-22 108c-3 14-16 25-33 22-14-3-25-17-22-30 2-48 14-167 14-173v-361l-67-69 19-20 48 48v-6c0 0 0 0 0-3l0-22c0-17 11-28 27-28h67c8 0 17 3 22 9 6-3 14-6 22-6h67c17 0 28 11 28 28v22c0 14-11 28-28 28v186l45 44h44l133-47v-208c0 0 0 0 0-3l0-22c0-17 11-28 28-28h67c11 0 19 6 22 14 6-8 14-14 22-14h67c17 0 28 11 28 28v22c0 14-11 28-28 28v189l236-236 19 19-255 256v150z m-22 13l-3-11v-127l-172 169 72 72 103-103z m61 248l92-92 0 0 0 0 8-8 0 0 48-48v-27l-156-23-14 0-97 98 114 114v-3l5-11z m-5 55v-3l-42-41 0 44 42 0z m-220-225l-27-28-12 12c12 5 25 11 39 16z m-439 84l0 0 25-117 14-11 228 0c3 0 47 3 103 19l22-22-167-167-13 0c0 0 0 0 0 0h-103-22-17l-14-14v-155l-42-42v336c0 0 0 0-14 173z m84-323h3 11v-102l-14-14v116z m39 0h41v-33l-41-42v75z m-39-280l-70 0v55l42 42v-64l14-14 14 0 0-19z m0 50v78l14 11v-95c-6 3-9 6-14 6z m94-28l14 0 0-22-69 0v166l41 42v-172l14-14z m14 258h6l-6-5v5z m339-239c-6 6-11 9-17 9v230h17v-239z m81-19l13 0v-22c0 0 0 0 0 0l-69 0v294l-14 11h-44l-14-14v-258l14-14 14 0 0-22-70 0v244l-8 14-145 50-25 0 148 148 188-189v-228l12-14z m63 619c12 0 23-8 23-22 0-11-9-22-23-22-11 0-22 11-22 22 0 11 9 22 22 22z" horiz-adv-x="1000" />
<glyph glyph-name="icon-11-vitroceramic" unicode="&#xe80a;" d="m953 850h-906c-28 0-47-19-47-47v-909c0-25 19-44 47-44h909c25 0 47 19 47 47v906c-3 28-22 47-50 47z m19-953c0-11-8-19-19-19h-906c-11 0-19 8-19 19v906c0 11 8 19 19 19h909c8 0 16-8 16-19v-906z m-697 400c-81 0-144-64-144-144 0-81 63-145 144-145 81 0 144 64 144 145 0 78-63 144-144 144z m0-264c-64 0-119 53-119 120s52 119 119 119 119-53 119-119-55-120-119-120z m0 323c-111 0-203-92-203-203s92-203 203-203 203 92 203 203-92 203-203 203z m0-381c-97 0-178 81-178 178s81 178 178 178c97 0 178-81 178-178s-81-178-178-178z m450 322c-81 0-144-64-144-144 0-81 63-145 144-145s144 64 144 145c0 78-63 144-144 144z m0-264c-64 0-119 53-119 120s52 119 119 119c64 0 119-53 119-119s-55-120-119-120z m0 323c-111 0-203-92-203-203s92-203 203-203 203 92 203 203-92 203-203 203z m0-381c-97 0-178 81-178 178s81 178 178 178c97 0 178-81 178-178s-81-178-178-178z m-450 428c92 0 167 75 167 166 0 92-75 167-167 167-92 0-167-75-167-167 0-91 75-166 167-166z m0 308c78 0 139-64 139-139 0-78-64-139-139-139-78 0-139 64-139 139 0 75 61 139 139 139z m450-264c69 0 125 56 125 125 0 70-56 125-125 125-69 0-125-55-125-125 0-69 56-125 125-125z m0 220c53 0 97-45 97-98 0-52-44-97-97-97-53 0-97 45-97 97 0 56 44 98 97 98z m0-278c100 0 183 80 183 183 0 100-80 184-183 184s-183-81-183-184c0-103 83-183 183-183z m0 336c86 0 156-69 156-156 0-86-70-155-156-155-86 0-156 69-156 155 0 87 70 156 156 156z" horiz-adv-x="1000" />
<glyph glyph-name="icon-12-gas" unicode="&#xe80b;" d="m414 261l19 20c6 5 6 13 0 19-5 6-14 6-19 0l-20-19c-30 25-69 41-113 41s-84-16-114-41l-20 19c-5 6-14 6-19 0-6-6-6-14 0-19l19-20c-25-30-41-69-41-114 0-44 16-83 41-114l-16-16c-6-6-6-14 0-20 2-3 5-3 8-3s5 0 8 3l20 20c30-25 69-42 114-42s83 17 113 42l20-20c3-3 5-3 8-3 3 0 6 0 9 3 5 6 5 14 0 20l-20 19c25 31 42 70 42 114 3 42-14 81-39 111z m-133 33c36 0 69-13 94-33l-22-22c-20 17-45 28-72 28s-53-11-73-28l-22 22c28 22 58 33 95 33z m91-147c0-19-5-39-16-53l-25 25c-6 6-14 6-20 0-5-5-5-13 0-19l25-25c-14-11-33-17-53-17-19 0-39 6-52 17l22 25c5 6 5 14 0 19-6 6-14 6-20 0l-25-25c-11 14-16 34-16 53 0 20 5 39 16 53l25-25c3-3 6-3 9-3 2 0 5 0 8 3 6 6 6 14 0 19l-25 25c14 12 33 17 53 17 19 0 39-5 53-17l-25-25c-6-5-6-13 0-19 2-3 5-3 8-3s5 0 8 3l25 25c17-14 25-31 25-53z m-239 0c0 36 14 70 34 95l22-23c-17-19-25-44-25-72 0-28 11-53 25-72l-22-19c-20 25-34 55-34 91z m148-147c-37 0-70 14-95 33l22 23c20-17 45-25 73-25 27 0 52 11 72 25l22-23c-25-19-58-33-94-33z m91 75c17 19 25 44 25 72 0 28-11 53-25 72l22 23c23-25 34-59 34-95 0-36-14-69-34-94l-22 22z m497 608c6 6 6 14 0 20-5 5-13 5-19 0l-17-20c-30 25-69 42-114 42-44 0-83-17-113-42l-20 20c-5 5-14 5-19 0-6-6-6-14 0-20l19-19c-25-31-42-70-42-114 0-44 17-83 42-114l-19-19c-6-6-6-14 0-20 2-3 5-3 8-3s6 0 8 3l20 20c30-25 69-42 114-42 44 0 83 17 114 42l19-20c3-3 6-3 8-3 3 0 6 0 9 3 5 6 5 14 0 20l-20 19c25 31 42 70 42 114 0 44-17 83-42 114l22 19z m-150 17c37 0 70-14 95-33l-22-23c-20 17-45 25-73 25-27 0-52-11-72-25l-22 23c25 19 58 33 94 33z m92-147c0-20-5-39-17-53l-25 25c-5 6-13 6-19 0-6-6-6-14 0-19l25-25c-14-12-33-17-53-17-19 0-39 5-53 17l25 25c6 5 6 13 0 19-5 6-13 6-19 0l-25-25c-11 14-17 33-17 53 0 19 6 39 17 53l25-25c3-3 6-3 8-3 3 0 6 0 9 3 2 5 2 13-3 19l-22 25c14 11 33 17 52 17 20 0 39-6 53-17l-25-25c-5-6-5-14 0-19 3-3 6-3 9-3 2 0 5 0 8 3l25 25c14-14 22-34 22-53z m-239 0c0 36 14 69 34 94l22-22c-17-19-25-44-25-72 0-28 11-53 25-72l-22-23c-20 25-34 59-34 95z m147-147c-36 0-69 13-94 33l22 22c20-17 45-25 72-25 28 0 53 11 73 25l22-22c-28-22-58-33-95-33z m148 147c0-36-14-70-34-95l-22 23c17 19 25 44 25 72 0 28-11 53-25 72l22 19c20-25 34-55 34-91z m-14-289l16 17c6 5 6 13 0 19-5 6-13 6-19 0l-17-17c-30 25-69 42-114 42-44 0-83-17-113-44l-20 19c-5 6-14 6-19 0-6-6-6-14 0-19l19-20c-25-30-42-69-42-111 0-44 17-83 42-114l-19-19c-6-6-6-14 0-20 2-3 5-3 8-3s6 0 8 3l20 20c30-25 69-42 114-42 41 0 80 17 111 42l19-20c3-3 6-3 9-3 2 0 5 0 8 3 5 6 5 14 0 20l-20 19c28 31 45 70 45 114 5 44-11 83-36 114z m-134 33c37 0 70-14 95-33l-22-22c-20 16-45 25-73 25-27 0-52-11-75-28l-22 22c28 22 61 36 97 36z m92-147c0-19-8-39-19-56-6 6-14 6-20 0-5-5-5-13 0-16-14-11-33-17-53-17-19 0-38 8-52 20 2 5 2 11-3 16-6 6-11 6-17 3-11 14-19 33-19 53 0 19 5 39 16 53 3-3 6-3 9-3 3 0 5 0 8 3 6 5 6 13 0 16 17 11 33 20 56 20 19 0 39-6 52-17l0 0c-5-6-5-14 0-19 3-3 6-3 9-3 3 0 5 0 8 3l0 0c17-17 25-37 25-56z m-239 0c0 36 14 67 34 92l22-23c-17-19-25-44-25-72 0-28 11-53 25-72l-22-22c-20 28-34 61-34 97z m147-147c-36 0-69 14-94 33l22 22c20-16 45-25 72-25 28 0 53 9 73 25l22-22c-28-19-58-33-95-33z m92 72c17 19 28 44 28 75 0 28-11 53-25 72l22 22c22-25 33-58 33-94 0-36-13-69-36-94l-22 19z m-92 136c-33 0-61-28-61-61s28-61 61-61c34 0 62 28 62 61s-28 61-62 61z m0-94c-19 0-33 14-33 33s14 33 33 33c20 0 34-14 34-33s-14-33-34-33z m-438 497c-34 0-62-28-62-61s28-61 62-61c33 0 61 27 61 61s-28 61-61 61z m0-95c-20 0-34 14-34 34s14 33 34 33c19 0 33-14 33-33s-14-34-33-34z m150 164c5 6 5 14 0 20-6 5-14 5-20 0l-17-20c-30 25-69 42-113 42-45 0-84-14-114-42l-20 20c-5 5-14 5-19 0-6-6-6-14 0-20l19-19c-25-31-41-70-41-111 0-45 16-84 41-114l-19-20c-6-5-6-13 0-19 3-3 5-3 8-3 3 0 6 0 8 3l23 19c30-25 69-41 114-41 41 0 80 16 111 41l19-19c3-3 6-3 8-3 3 0 6 0 9 3 5 6 5 14 0 19l-20 20c28 30 45 69 45 114 0 44-17 83-42 114l20 16z m-150 17c36 0 69-14 94-33l-22-23c-20 17-45 25-72 25-28 0-53-11-75-27l-20 22c25 22 58 36 95 36z m91-147c0-20-8-39-19-56l0 0c-6 6-14 6-20 0-5-5-5-14 0-19l0 0c-14-11-33-17-52-17-20 0-39 6-53 20 5 5 5 13 0 19-6 6-14 6-20 0-11 14-16 33-16 53 0 19 5 36 16 53l0 0c3-6 6-6 9-6s5 0 8 3c6 5 6 14 0 19l0 0c14 11 33 20 56 20 19 0 38-6 52-17l0-3c-5-5-5-14 0-19 3-3 6-3 9-3 2 0 5 0 8 3l3 3c11-14 19-34 19-53z m-239 0c0 36 14 66 34 91l22-22c-17-19-25-44-25-72 0-28 11-53 25-72l-22-20c-20 25-34 59-34 95z m148-147c-37 0-70 13-95 33l22 22c20-17 45-25 73-25 27 0 52 8 72 25l22-22c-28-22-58-33-94-33z m147 147c0-36-14-70-36-95l-23 23c17 19 28 44 28 75 0 27-11 52-25 72l22 22c20-31 34-61 34-97z m525 297h-906c-28 0-47-19-47-47v-909c0-25 19-44 47-44h909c25 0 47 19 47 47v906c-3 28-22 47-50 47z m19-953c0-11-8-19-19-19h-906c-11 0-19 8-19 19v906c0 11 8 19 19 19h909c8 0 16-8 16-19v-906z" horiz-adv-x="1000" />
<glyph glyph-name="icon-13-oven" unicode="&#xe80c;" d="m969 786h-938c-17 0-31-14-31-30v-812c0-16 14-30 31-30h941c17 0 31 14 31 30v812c-3 16-17 30-34 30z m3-842c0-2 0-2 0 0l-941-2c0 0-3 0-3 2v812c0 0 0 2 3 2h941c3 0 3 0 3-2v-812z m-83 528h-778c-17 0-30-14-30-30v-431c0-17 13-30 30-30h778c17 0 30 13 30 30v433c0 17-13 28-30 28z m3-461c0 0 0-3 0 0l-781-3c0 0-3 0-3 3v433c0 3 0 3 3 3h778c3 0 3 0 3-3v-433z m-86 358c0-8-6-13-14-13h-586c-9 0-14 5-14 13 0 9 5 14 14 14h586c8 0 14-5 14-14z m52 328v20c0 8-5 14-14 14s-13-6-13-14v-23c-42-5-73-41-73-83s31-78 73-83v-22c0-9 5-14 13-14s14 5 14 14v22c42 5 73 41 73 83s-34 78-73 86z m-72-86c0 28 20 50 45 56v-114c-25 8-45 30-45 58z m72-55v113c25-5 45-27 45-55s-20-53-45-58z m-227-28v-22c0-9 5-14 13-14 9 0 14 5 14 14v22c42 5 73 41 73 83s-31 78-73 83v23c0 8-5 14-14 14-8 0-13-6-13-14v-23c-42-5-73-41-73-83s31-78 73-83z m72 83c0-28-20-50-45-55v113c25-8 45-30 45-58z m-72 58v-113c-25 5-45 27-45 55s17 50 45 58z m-478-141v-22c0-9 5-14 14-14s14 5 14 14v22c41 5 72 41 72 83s-31 78-72 86v20c0 8-6 14-14 14s-14-6-14-14v-23c-42-5-72-38-72-83s30-78 72-83z m72 83c0-28-19-50-44-55v113c25-8 44-30 44-58z m-72 58v-113c-25 5-45 27-45 55s20 50 45 58z m197-141v-22c0-9 6-14 14-14 8 0 14 5 14 14v22c41 5 72 41 72 83s-31 78-72 83v23c0 8-6 14-14 14-8 0-14-6-14-14v-23c-42-5-72-38-72-83s30-78 72-83z m72 83c0-28-19-50-44-55v113c25-8 44-30 44-58z m-72 58v-113c-25 5-44 27-44 55s19 50 44 58z" horiz-adv-x="1000" />
<glyph glyph-name="icon-14-microwave" unicode="&#xe80d;" d="m953 700h-906c-28 0-47-19-47-44v-612c0-25 19-47 47-47h909c25 0 47 20 47 47v612c-3 25-22 44-50 44z m19-656c0-11-8-19-19-19h-906c-11 0-19 8-19 19v612c0 11 8 19 19 19h909c8 0 16-8 16-19v-612z m-350 567h-494c-9 0-14-5-14-14v-494c0-9 5-14 14-14h494c9 0 14 5 14 14v494c0 9-5 14-14 14z m-14-494h-466v466h466v-466z m261 494h-141c-9 0-14-5-14-14v-78c0-8 5-13 14-13h141c9 0 14 5 14 13v78c-2 9-8 14-14 14z m-13-78h-117v50h117v-50z m-45-91v19c0 8-5 14-14 14s-14-6-14-14v-22c-41-6-72-42-72-83 0-42 31-78 72-84v-22c0-8 6-14 14-14s14 6 14 14v22c42 6 72 42 72 84-2 44-33 77-72 86z m-72-84c0 28 19 50 44 56v-111c-25 5-44 28-44 55z m72-58v111c25-5 45-28 45-55s-20-48-45-56z m-14-78c-36 0-66-30-66-66 0-37 30-67 66-67s67 30 67 67c0 36-31 66-67 66z m0-105c-22 0-39 16-39 39 0 22 17 38 39 38s39-16 39-38c0-23-17-39-39-39z" horiz-adv-x="1000" />
<glyph glyph-name="icon-15-nespresso" unicode="&#xe80e;" d="m806 17c0 11-14 22-34 27v598c0 116-128 211-283 211-156 0-281-95-281-211v-598c-16-8-27-16-27-27 0 0 0 0 0 0h0v0c0 0 0 0 0 0l0-109 0-5c16-50 280-53 311-53s294 3 311 53l0 103c0 5 3 8 3 11z m-62-9c-2 0-2-2 0 0-25-5-61-11-102-14 0 0-3 0-3 0-42-2-89-5-145-5-58 0-108 3-150 5 0 0 0 0 0 0-72 6-119 17-133 25 0 0 3 0 3 3l14 6c11 3 25 8 44 11 3 0 6 0 9 3 2 0 8 0 11 2 2 0 5 0 8 0 11 3 22 3 33 3 3 0 6 0 9 0 14 0 25 3 39 3 2 0 8 0 11 0v-8l2-3c0 0 28-28 84-28h22c56 0 81 25 83 28l3 3 0 8c6 0 11 0 17 0 11 0 22-3 30-3 3 0 9 0 11 0 14 0 25-3 39-3 9 0 17-2 23-2 0 0 2 0 2 0 17-3 34-6 45-9l11-2c3 0 5-3 8-3-3-3-11-6-22-9 0-11-3-11-6-11z m-336 217c0 0 0 0 0 0 6-3 9-3 11-3 3 0 6-3 12-3 0 0 2 0 2 0 36-8 78-8 114 0 0 0 3 0 3 0 3 0 6 3 11 3 3 0 6 3 8 3 0 0 3 0 3 0-3-22-8-50-8-75-20 6-45 8-70 8-27 0-55-2-75-8-5 22-8 50-11 75z m167 33c0 0 0 0 0 0 0 0 0-2 0 0-3-2-3-2-6-2 0 0-2 0-2-3 0 0-3 0-3-3 0 0-3 0-3-3-3 0-3 0-5-3-3 0-3 0-6-2-3 0-6 0-6-3-2 0-2 0-5 0-3 0-6 0-8-3-3 0-3 0-6 0-3 0-8 0-11 0-3 0-3 0-6 0-5 0-11 0-19 0-6 0-14 0-20 0-2 0-5 0-8 0-3 0-5 0-8 0-31 6-47 14-50 17 3 5 33 19 86 19 55 6 83-8 86-14l0 0z m31-186c-3 0-6 0-9 0-3 0-3 0-5 0 0 0 0 0-3 0 0 0 0 0-3 0v45c3 0 3 0 6 0 36 0 64 30 64 64 0 33-25 61-56 63 0 3 0 6 0 6 0 3 0 3 0 6l0 0c0 0 0 0 0 0 0 33-58 47-114 47s-114-14-114-47c0-3 0-6 0-6 3-17 14-97 14-125v-53c-3 0-3 0-5 0-12 0-20 0-28-3-6 0-9 0-14 0-6 0-11 0-14-2-3 0-6 0-8 0-6 0-9 0-14 0-3 0-3 0-6 0v397h70l-3-28c0-3-3-5-3-8 0-34 64-47 122-47 59 0 123 13 123 47 0 3 0 5 0 5l-6 31h69v-397c-16 2-38 2-63 5z m-17 70c3 19 5 44 8 75 17-3 31-20 31-39 3-20-17-36-39-36z m-6 286c-2-6-33-22-94-22-61 0-92 16-95 22l31 233c0 22 28 42 61 42 33 0 61-20 61-45l36-230z m92 64h-72l-22 169c0 39-39 70-89 70s-89-31-89-67l-22-172h-75v150c0 72 83 133 186 133 102 0 186-61 186-133v-150z m-442-439v589c0 102 114 183 256 183 142 0 255-83 255-183v-586c-8 2-13 2-22 5-5 0-14 3-19 3v578c0 89-95 161-214 161s-211-72-211-161v-581c-3 0-3 0-6 0 0 0-3 0-3 0-13-3-25-5-36-8z m256-172c-164 0-270 19-283 33l0 78c66-28 241-31 283-31 39 0 192 3 267 25 5 3 11 3 16 6l0-75c-14-17-122-36-283-36z" horiz-adv-x="1000" />
<glyph glyph-name="icon-16-coffee" unicode="&#xe80f;" d="m611 425c0-8-5-14-14-14h-64c-8 0-14 6-14 14s6 14 14 14h64c9 0 14-6 14-14z m-14-92h-64c-8 0-14-5-14-14s6-13 14-13h64c9 0 14 5 14 13s-5 14-14 14z m0-105h-64c-8 0-14-6-14-14s6-14 14-14h64c9 0 14 6 14 14s-5 14-14 14z m0-106h-64c-8 0-14-5-14-14 0-8 6-14 14-14h64c9 0 14 6 14 14 0 9-5 14-14 14z m364 84c-50-56-114-109-147-125 0-39-3-64-3-67 0-3 0-3-3-6-8-22-50-36-105-44v-17c0-11 0-28-259-28-258 0-258 17-258 28v14c-64 11-117 25-119 50 0 0 0 3 0 3 0 11-14 255 55 467l-116 72c0 0 0 0 0 0 0 0 0 3-3 3 0 0-3 2-3 2 0 0 0 0 0 0 0 3 0 3 0 6 0 0 0 0 0 0 0 0 0 0 0 0 0 3 3 5 3 5 0 0 0 0 0 0 0 0 3 3 3 3l188 84c3 0 6 0 6 0l39 58c0 0 0 0 3 0 5 8 30 17 125 19 11 28 39 45 69 45 31 0 58-20 70-45 116-2 130-14 130-22l20-30c13 0 36 0 52-3 6 0 11-3 14-3 9 0 14-3 20-3 5 0 14 0 19 20 3 5 6 8 11 8h45c8 0 14-6 14-14v-53c19-2 61-16 83-61 25-53 78-180 78-186 2 0 27-114-31-180z m-153-6c36 25 109 89 75 175-5 14-11 31-16 44-31 89-53 153-139 153-3 0-6 0-11 0 61-119 83-261 91-372z m-300 511c0-3 0-3 0-5l3 0c0 0 3 0 3 0 0 0 3 0 3 0l0 0c0 0 2 0 2 0l0 0 0 0c0 0 3 0 3 0l0 0 3 0c0 0 3 0 3 0l11 0c0 0 3 0 3 0l5 0c-8 2-22 5-39 5z m-122 8c0-2-3-8-3-11 0 0 3 0 3 0l14 0 61 0c8 0 17 0 25 0 0 6 0 9-3 14-5 22-25 36-50 36-22-2-41-19-47-39z m-28-8c-14 0-25 0-36-3l0 0c6 0 11 0 17 0 0 0 0 0 0 0 5 0 11 0 17 0l0 0c2 0 2 0 2 3z m-147-83v-17c36-11 128-19 228-19 69 0 125 2 164 8 33 3 55 8 66 11l-19 28-33 50c-17-3-50-6-117-8 0 0-3 0-3 0 0 0 0 0 0 0l-33 0c0 0-3 0-3 0l-5 0c0 0-6 0-6 0l-11 0c0 0 0 0 0 0 0 0 0 0 0 0l0 0-25 0c0 0 0 0 0 0-11 0-22 0-33 0 0 0 0 0 0 0l-3 0c0 0-3 0-3 0 0 0 0 0 0 0 0 0 0 0-3 0 0 0 0 0 0 0l-14 0-2 0c0 0 0 0 0 0-42 2-67 5-84 8-3 0-3 0-5 0 0 0 0 0 0 0-3 0-6 0-9 3l-47-64z m-25-3l-89-39 89 11c0 0 0 3 0 3v3l0 22z m-55-122c5 16 11 30 19 47l-94 0 75-47z m213-559c-47 3-91 6-130 12v-3c17 0 61-6 130-9z m328 14c-3 0-3 0-5 0-45-5-95-11-150-11 89 3 144 6 164 11v3c-3-3-6-3-9-3z m117 136c0 25 0 50-3 75-5 123-30 298-105 423h-3c-9-3-22-6-39-9-56-11-142-11-200-11-3 0-3 0-6 0l0 0c0 0 0 0 0 0-77 0-144 3-191 11l-61-11c0 0 0 0 0 0 2-3 2-8 0-11-103-214-89-522-87-544 0 0 0 0 0 0 3-9 45-23 114-34 3 0 6 0 9 0 5 0 11 0 14-2 5 0 8 0 13-3 3 0 9 0 12 0 5 0 13 0 19-3 3 0 6 0 8 0 9 0 17 0 23-3 2 0 2 0 5 0 8 0 17 0 25 0 3 0 6 0 8 0 9 0 17 0 23 0 5 0 8 0 14 0 5 0 11 0 19 0 11 0 22 0 36 0 14 0 25 0 36 0 6 0 14 0 20 0 5 0 11 0 14 0 8 0 13 0 22 0 3 0 8 0 11 0 8 0 14 0 19 0 6 0 9 0 14 0 6 0 11 0 17 0 5 0 11 0 17 3 2 0 5 0 8 0 103 11 161 28 167 39 0 0 0 3 0 3 8 11 8 39 8 77z m180 292c0 0-52 131-77 181-23 44-73 47-73 47-8 0-13 5-13 14v53h-25c-9-20-20-28-39-28-9 0-14 0-23 3-5 0-8 2-13 2-12-2-23 0-34-2l22-34c6-5 6-8 6-14 0 0 0 0 0 0 0 0 0 0 0 0 3-5 6-8 8-14 123 12 153-69 186-166 6-14 12-28 17-45 42-111-69-194-97-214 0-22 3-41 3-61 30 23 86 64 127 114 48 59 25 161 25 164z" horiz-adv-x="1000" />
<glyph glyph-name="icon-31-fireplace" unicode="&#xe810;" d="m1000 175c0 17-8 33-22 44 14 12 22 28 22 45 0 33-25 58-58 58 30 9 50 42 41 72-8 31-41 50-72 42 28 17 36 53 22 81-16 27-52 36-80 22 22 22 22 58 0 83-22 22-61 22-84 0 9 14 9 28 6 45-3 14-14 27-28 36-28 16-64 5-80-22 2 13 2 30-6 44-8 14-19 22-36 28-31 8-64-11-72-42 0 31-25 58-59 58-33 0-58-25-58-58-8 31-42 50-72 42-14-3-28-14-36-28-9-14-11-28-6-44-8 22-44 30-72 16-14-8-22-22-28-36-3-17 0-30 6-44-22 22-61 22-84 0-22-23-22-59 0-84-27 14-63 6-80-22-17-28-6-64 22-80-30 8-64-12-72-42-6-28 14-58 44-67-33 0-58-28-58-58 0-17 8-33 22-45-14-11-22-27-22-44 0-19 8-36 22-47-14-11-22-28-22-45s8-33 22-44c-14-11-22-28-22-45 0-33 25-58 58-58h86c34 0 59 25 59 58 0 17-9 34-22 45 13 11 22 28 22 44s-9 36-22 45c13 11 22 28 22 44 0 17-9 34-22 45 13 11 22 27 22 44 0 17-6 31-17 42 14 8 22 19 28 36 3 14 3 30-6 44 0 0 0 0 0 0 14 3 28 14 36 28 9 14 12 28 6 45 0 0 0 0 0 0 0 0 0 0 0 0 17 0 31 5 42 16 11 11 16 28 16 42 6-3 11-3 17-3 11 0 19 3 28 8 14 9 22 23 28 37 8-6 19-9 30-9 6 0 11 0 14 3 17 6 28 14 36 28 11-11 25-17 42-17 16 0 30 6 41 17 9-14 20-22 37-28 5 0 11-3 13-3 12 0 20 3 31 9 3-14 14-28 28-37 8-5 19-8 28-8 5 0 11 0 16 3 0-14 6-31 17-42 11-11 25-16 42-16 0 0 0 0 0 0 0 0 0 0 0 0-3-14-3-31 5-45 8-14 22-22 36-28 0 0 0 0 0 0-8-14-11-30-5-44 2-17 14-28 27-36-11-11-16-25-16-42 0-17 8-33 22-44-14-11-22-28-22-45 0-16 8-33 22-44-14-11-22-28-22-45s8-33 22-44c-14-11-22-28-22-45 0-33 25-58 58-58h86c34 0 59 25 59 58 0 17-9 34-23 45 14 11 23 28 23 44s-9 34-23 45c9 11 17 28 17 47z m-825-181c0-16-14-30-31-30h-86c-16 0-30 14-30 30s14 31 30 31h86c17 0 31-14 31-31z m0 89c0-16-14-30-31-30h-86c-16 0-30 14-30 30s14 31 30 31h86c17 3 31-11 31-31z m0 92c0-17-14-31-31-31h-86c-16-2-30 12-30 31 0 17 14 31 30 31h86c17 0 31-14 31-31z m-117 58c-16 0-30 14-30 31s14 30 30 30h86c17 0 31-13 31-30s-14-31-31-31h-86z m128 114c-5-16-22-28-39-22l-83 22c-17 6-28 22-22 39 2 14 16 22 30 22 3 0 6 0 9 0l83-22c8-3 14-8 19-14 3-8 6-16 3-25z m33 78c-8-14-27-19-41-11l-75 42c-14 8-20 27-11 41 5 9 16 17 27 17 6 0 12-3 17-3l75-42c8-2 11-11 14-19 0-8-3-17-6-25z m50 67c-11-11-33-11-44 0l-58 61c-11 11-11 30 0 44 5 6 14 9 22 9 8 0 17-3 22-9l61-61c11-11 11-30-3-44z m70 52c-14-8-33-2-42 12l-44 75c-6 5-6 13-3 22 0 8 6 16 14 19 5 3 11 6 14 6 11 0 22-6 28-17l41-75c11-14 6-33-8-42z m78 34c-17-6-34 5-39 22l-22 83c-3 9 0 17 2 23 6 8 11 11 20 13 3 0 5 0 8 0 14 0 28-8 31-22l22-83c3-17-6-33-22-36z m114 41c0-16-14-30-31-30-17 0-31 14-31 30v87c0 16 14 30 31 30 17 0 31-14 31-30v-87z m52-41c-16 5-27 22-22 39l22 83c3 14 17 22 31 22 3 0 5 0 8 0 17-5 25-22 22-39l-22-83c-5-17-22-28-39-22z m78-34c-14 9-19 28-11 42l44 75c6 8 17 17 28 17 6 0 11-3 17-3 5-6 11-14 11-22 3-9 0-17-3-22l-41-75c-9-14-28-20-45-12z m70-52c-12 11-12 30 0 44l61 61c5 6 14 9 22 9 8 0 17-3 22-9 11-11 11-30 0-44l-61-61c-14-11-33-11-44 0z m50-67c-3 8-6 17-3 25 3 8 8 14 14 19l75 42c5 3 11 3 16 3 11 0 23-6 28-17 8-14 3-33-11-41l-75-42c-17-8-36-3-44 11z m36-56c2 9 11 12 19 14l83 23c3 0 6 0 9 0 14 0 28-9 30-23 6-16-5-33-22-39l-83-22c-17-5-34 6-39 22-3 12 0 20 3 25z m8-105c0 17 14 30 31 30h86c16 0 30-13 30-30s-14-31-30-31h-86c-17 0-31 14-31 31z m147-270c0-16-14-30-30-30h-86c-17 0-31 14-31 30s14 31 31 31h86c16 0 30-14 30-31z m0 89c0-16-14-30-30-30h-86c-17 0-31 14-31 30s14 31 31 31h86c16 3 30-11 30-31z m-116 59c-17 0-31 14-31 30 0 17 14 31 31 31h86c16 0 30-14 30-31 0-16-14-30-30-30h-86z m-320 152c-28-33-39-61-39-97 0-5 0-8 0-14 0-2 3-8 6-8 3-3 5-3 8-3 0 0 0 0 3 0 69 11 119 70 119 139 0 36-14 70-36 95-3 5-11 5-14 2-5-2-8-8-8-14 0-2 0-5 0-5 0-33-11-61-31-89l-8-6z m28-8c19 22 30 47 33 72 6-14 9-27 9-44 0-50-34-95-84-111 0 28 11 47 34 75l8 8z m-170 136c-8-5-16-11-22-16-30-28-47-64-47-106 0-14 3-28 6-42 16-55 66-94 125-97 0 0 0 0 0 0 2 0 8 3 11 3 2 3 5 5 2 11 0 6 0 8 0 14 0 36 12 64 39 97l6 6c22 27 30 55 30 89 0 8-2 33-2 44-11 50-48 94-98 111-5 3-8 0-13-3-3-2-6-8-6-11 0-5 0-8 0-14 3-44-3-72-31-86z m62 75c30-16 52-47 61-80 0-6 2-34 2-39 0-28-8-47-25-72l-5-6c-31-39-45-69-45-111-38 8-72 39-86 78-2 11-5 22-5 36 0 33 14 64 36 83 5 6 11 11 19 14 45 22 48 69 48 97z m241-439l-344 123c-28 11-61-6-70-34-5-14-2-28 3-41 6-14 17-23 31-28l344-122c6-3 11-3 20-3 22 0 44 14 52 36 6 14 3 28-2 42-9 11-20 22-34 27z m9-64c-6-13-23-22-37-16l-347 122c-8 3-14 8-16 14-3 5-3 14 0 22 2 11 13 20 27 20 3 0 6 0 9-3l344-122c8-3 14-9 17-14 3-6 3-14 3-23z m-189 148c0-6 2-11 8-14l128-45c3 0 3 0 5 0s3 0 6 0l25 9c14 5 25 14 30 27 6 14 9 28 3 42-11 28-41 45-69 33l-125-44c-9 0-11-3-11-8z m141 30c14 6 31-3 36-16 3-9 3-14 0-23s-8-11-16-14l-22-8-87 31 89 30z m-191-164l-128 45c-3 0-6 0-8 0l-28-9c-28-11-45-41-34-69 9-22 28-36 53-36 6 0 11 0 20 3l125 44c5 3 8 8 8 14s-3 8-8 8z m-136-41c-14-6-31 2-37 16-5 14 3 31 17 36l22 9 86-31-88-30z" horiz-adv-x="1000" />
<glyph glyph-name="icon-30-elevator-1" unicode="&#xe812;" d="m861 850h-722c-36 0-67-31-67-67v-864c0-38 31-69 67-69h722c36 0 67 31 67 67v866c0 36-31 67-67 67z m-761-933v866c0 23 17 39 39 39h347v-944h-347c-22 0-39 16-39 39z m800 0c0-23-19-42-42-42h-344v947h347c22 0 42-19 42-41v-864z m-500 369l-100-100c0 0-3-3-6-3-2 0-2 0-5 0s-3 0-6 0c-2 0-2 3-5 3l-100 100c-6 6-6 14 0 20 5 5 14 5 19 0l75-75v272c0 8 6 14 14 14s14-6 14-14v-272l75 75c6 5 14 5 19 0 12-6 12-14 6-20z m417 128c5-6 5-14 0-20-3-2-6-2-9-2s-5 0-8 2l-75 75v-272c0-8-6-14-14-14s-17 9-17 14v272l-75-75c-2-2-5-2-8-2s-5 0-8 2c-6 6-6 14 0 20l100 100c0 0 3 3 5 3 3 0 9 0 11 0 3 0 3-3 6-3l92-100z" horiz-adv-x="1000" />
<glyph glyph-name="icon-29-hairdryer" unicode="&#xe813;" d="m969 731c0 0-2 2-2 2-3 3-89 48-189 48-64 0-117-14-170-28-30-9-55-14-86-20-44-8-105-8-150-8-41 0-75 0-75 0-3 0-8 0-11-3-3-3-3-5-3-8v-150c0-3 3-8 3-8 3-3 6-3 11-3 0 0 31 0 75 0 45 0 106-3 150-9 28-5 56-11 86-19 28-8 59-14 89-19l11-59c-5-8-11-19-11-30 0-17 9-31 22-39-5-9-8-17-8-28 0-17 8-33 22-42-5-8-8-16-8-27 0-17 8-34 25-42l14-72c3-14 17-25 30-25 3 0 6 0 6 0l22 5c-3-33 20-64 42-94 39-53 75-103 14-172l-9-12 20-16 8 11c75 86 28 153-11 205-22 31-42 59-36 87l25 5c8 3 17 6 19 14s6 17 6 25l-11 56c5 8 11 19 11 30 0 17-8 33-22 42 5 8 8 16 8 28 0 16-8 30-22 38 5 9 8 17 8 28 0 17-8 34-25 42l-8 44c69 14 122 42 125 42 0 0 3 0 3 3 0 0 27 28 27 69v39c3 42-22 67-25 70z m-50-6v-172c-25-11-61-22-100-28-5 0-11 0-16-3-6 0-14 0-20 0-2 0-2 0-5 0v231c0 0 0 0 0 0 55 0 108-17 141-28z m-391-156c-45 9-109 9-153 9-25 0-47 0-61 0v122c14 0 36 0 61 0 44 0 108 3 153 8 30 6 61 14 89 20 41 11 86 22 133 25v-228c-6 0-11 0-14 0-3 0-3 0-5 0-42 6-78 14-114 22-31 9-59 17-89 22z m297-125c0-5 6-8 8-11 9-2 14-11 14-19 0-6-3-11-5-17-3-3-6-8-3-14l3-11c0-5 2-8 8-11 8-3 14-11 14-19 0-6-3-11-6-14-2-3-5-9-2-11l2-9c0-5 6-8 9-11 8-3 14-11 14-19 0-6-3-11-9-17-3-3-5-8-5-14l14-64c0-2 0-5-3-5l-28-6-8 3-9 0-33-8c-3 0-6 0-6 2l-16 81c0 6-3 8-9 11-8 3-13 11-13 20 0 5 2 11 5 13 3 3 6 9 3 12l-3 8c0 5-5 8-8 11-9 3-14 11-14 19 0 6 3 12 8 17 3 3 6 8 6 14l-3 8c0 6-6 9-8 11-9 3-14 12-14 20 0 5 3 11 5 17 3 2 6 8 3 13l-11 56c0 0 3 0 3 0 3 0 3 0 5 0 14-3 28-3 42-3 0 0 0 0 3 0 3 0 5 0 11 0 3 0 3 0 5 0 9 0 14 0 23 3l8-56z m147 173c0-25-14-45-19-50 0 0-3-3-6-3v150c3 0 6-3 6-3 3-5 19-25 19-50v-44z m-705 94c0-3-6-5-11-5-3 0-6 0-6 2l-228 117c-5 3-8 11-5 17 2 8 11 11 19 5l228-116c5-3 8-12 3-20z m0-164c2-5 0-14-6-19l-228-117c-2 0-2-3-5-3-6 0-9 3-11 9-3 5 0 14 5 19l228 117c6 5 14 3 17-6z m-264 89c0 8 5 14 14 14h225c8 0 14-6 14-14s-9-14-14-14h-225c-9 0-14 6-14 14z m0 117c3 8 11 11 16 8l167-55c6-3 11-12 8-17-2-6-8-11-13-11-3 0-3 0-6 0l-167 55c-2 3-8 11-5 20z m16-242c-2 0-2 0-5 0-6 0-11 3-14 8-3 9 3 14 8 17l167 56c8 2 17 0 19-9 3-8-2-14-8-16l-167-56z" horiz-adv-x="1000" />
<glyph glyph-name="icon-28-wifi" unicode="&#xe814;" d="m533 586h-333c-25 0-47-19-47-47v-645c0-25 19-47 47-47h333c25 0 48 20 48 47v648c-3 25-23 44-48 44z m-333-25h333c11 0 20-8 20-19v-556h-145c-5 17-22 31-41 31-20 0-36-11-42-31h-144v556c0 11 8 19 19 19z m158-578c3 0 6 3 9 3s5 0 8-3h-17z m17-25c-3 0-6-2-8-2s-6 0-9 2h17z m158-80h-333c-11 0-19 8-19 19v61h144c6-16 22-30 42-30 19 0 36 11 41 30h145v-61c0-11-9-19-20-19z m128 694c0-8-5-14-14-14-8 0-14 6-14 14 0 36-30 67-66 67-9 0-14 5-14 14s5 14 14 14c52 0 94-42 94-95z m89 0c0-8-6-14-14-14-8 0-14 6-14 14 0 86-69 156-155 156-9 0-14 5-14 14 0 8 5 14 14 14 102 0 183-84 183-184z m94 0c0-8-5-14-13-14-9 0-14 6-14 14 0 139-114 250-250 250-9 0-14 6-14 14 0 8 5 14 14 14 152 0 277-125 277-278z m-575-75c0 9 6 14 14 14h167c8 0 14-5 14-14 0-8-6-14-14-14h-167c-8 3-14 9-14 14z" horiz-adv-x="1000" />
<glyph glyph-name="icon-27-internet" unicode="&#xe815;" d="m708 514c0 3 0 5 0 8 0 3 0 9-2 11 0 3 0 6-3 9 0 2-3 5-3 8 0 3-3 6-3 8 0 3-3 6-3 9 0 2-2 5-2 8-3 3-3 8-6 11 0 3-3 6-3 6-2 5-5 11-8 14 0 0 0 0 0 2-6 9-8 14-14 20l-8 8 0 0c-36 39-84 64-139 67l-3 0c0 0 0 0 0 0v0h-11-14v0c0 0-3 0-3 0l0 0c-52-6-102-31-136-67l0 0-8-8c-6-6-8-11-11-17 0 0 0 0 0-3-3-5-6-8-9-14 0-2-2-5-2-5-3-3-3-6-6-11-5-3-5-6-5-9 0-2-3-5-3-8 0-3-3-5-3-8 0-3-3-6-3-9 0-2-3-5-3-8 0-3 0-8-2-11 0-3 0-6 0-8 0-3 0-3 0-6h0v-14-14h0c0-2 0-5 0-5 0-3 0-6 0-9 0-2 0-8 2-11 0-2 3-8 3-11 0-3 0-5 3-8 0-3 3-8 3-11 0-3 3-6 3-6 2-3 2-8 5-11 0-3 3-3 3-5 3-3 3-9 5-12 0-2 3-2 3-5 3-3 6-8 9-11 0-3 2-3 2-6 3-3 6-8 9-11 0 0 0 0 0 0l8-8 0 0c33-36 81-59 133-61l0 0c0 0 3 0 3 0v0h14 14v0c0 0 0 0 3 0l0 0c52 2 100 27 133 61l0 0 8 8c0 0 0 0 0 0 3 3 6 8 9 11 0 3 2 3 2 6 3 3 6 8 9 11 0 3 3 3 3 5 2 3 5 9 5 12 0 2 3 2 3 5 3 3 3 8 5 11 0 3 3 6 3 6 0 3 3 8 3 11 0 3 3 5 3 8 0 3 3 9 3 11 0 3 0 9 2 11 0 3 0 6 0 9 0 3 0 5 0 5h0v14 14h0c0-3 0 0 0 3z m-30-58c0-3 0-3 0 0-3-12-6-17-9-25 0 0 0-3 0-3-2-9-5-17-11-22 0 0 0 0 0 0-2-9-8-14-14-23 0 0 0 0 0 0-13 9-30 17-47 23l0 0 0 0c0 0 0 2 0 2 3 11 6 23 9 34 0 0 0 0 0 2 2 12 2 23 2 34 0 3 0 3 0 5h0 73c0 0 0 0 0-2 0-12 0-17-3-25z m-322-73c-6 6-12 14-14 23 0 0 0 0 0 0-3 8-9 13-11 22 0 0 0 3 0 3-3 8-6 13-6 22 0 0 0 3 0 3-3 8-3 16-3 25 0 0 0 0 0 2h70 0c0-2 0-2 0-5 0-11 2-22 2-34 0 0 0 0 0 0 3-11 6-22 9-33 0 0 0-3 0-3l0 0 0 0c-17-11-34-16-47-25 0 0 0 0 0 0z m-37 150c3 0 3 0 0 0 3 9 3 14 6 23 0 2 0 2 3 5 3 6 5 11 8 17 0 0 0 3 3 3 3 5 8 11 11 19 0 0 0 3 3 3 14-9 30-17 47-22l0 0 0 0c0 0 0-3 0-3-3-11-6-20-8-31 0 0 0 0 0 0-3-14-3-25-3-36 0 0 0-3 0-3h0-70c0 0 0 0 0 3 0 6 0 14 0 22z m331 64c3-5 8-11 11-19 0 0 0-3 3-3 3-6 5-11 8-17 0-2 0-2 3-5 3-6 6-14 6-20 0 0 0 0 0-2 2-9 2-14 2-23 0 0 0 0 0-2h-72 0c0 0 0 2 0 2 0 11-3 23-3 31 0 0 0 0 0 0-2 11-2 19-8 30 0 0 0 3 0 3l0 0 0 0c17 11 33 20 50 25 0 3 0 3 0 0z m-194-33c0 0 0 0 0 0 8-3 19-3 27-3 0 0 3 0 3 0v0-53h-72c0 0 0 3 0 3 0 8 3 20 3 28 0 0 0 0 0 0 2 8 2 19 5 28 0 0 0 2 0 2 0 0 3 0 3 0 11-2 22-2 31-5z m88 0c0 0 0 0 0 0 9 3 17 3 28 5 0 0 3 0 3 0 0 0 0-2 0-2 3-9 6-17 6-28 0 0 0 0 0 0 2-8 2-20 2-28 0 0 0-3 0-3h-69v53 0c0 0 3 0 3 0 8 0 16 3 27 3z m39-86c0-11-2-20-2-31 0 0 0 0 0 0-3-11-6-19-9-28 0 0 0-2 0-2-8 2-19 5-28 5 0 0 0 0 0 0-8 0-19 3-27 3v0 61h66c0-8 0-8 0-8z m-127-61c0 0 0 0 0 0-9-3-17-3-28-6 0 0-3 0-3 0 0 0 0 3 0 3-3 8-6 19-8 30 0 0 0 0 0 0-3 12-3 20-3 31 0 0 0 3 0 3h72v-61 0c0 0-3 0-3 0-8 2-16 2-27 0z m5-28c0 0 0 0 0 0 11 3 20 3 28 3v-78c-20 19-36 44-50 69 5 3 14 6 22 6z m53 3c8 0 17 0 25-3 0 0 0 0 0 0 8 0 14-3 22-6-11-27-28-50-47-69v78z m28 200c-3 0-3 0 0 0-9-3-20-3-28-3v83c22-19 39-47 50-75-8-3-17-5-22-5z m-56-3c-8 0-17 0-28 3 0 0 0 0 0 0-8 0-16 2-25 5 11 31 31 56 53 78v-86z m-75-211c8-22 22-42 36-59-28 9-53 23-72 42 11 6 22 11 36 17z m175 0c14-6 28-11 39-17-19-19-47-33-75-42 17 17 28 37 36 59z m45 244c-14-8-25-14-42-19-8 25-22 47-39 66 33-8 58-25 81-47z m-184 47c-16-19-28-41-39-63-14 5-27 11-39 16 23 22 48 39 78 47z m506 150h-906c-28 0-47-22-47-47v-558-28-108c0-25 19-47 47-47h342c0-67-33-123-72-123h-59v-27h481v27h-53c-39 0-69 56-72 123h342c25 0 47 19 47 47v108 28 558c-3 25-22 47-50 47z m-325-911h-256c25 28 42 73 42 123h172c0-50 17-95 42-123z m344 170c0-11-8-20-19-20h-906c-11 0-19 9-19 20v108h944v-108z m-944 136v558c0 11 8 20 19 20h909c11 0 19-9 19-20v-558h-947z m472-147c31 0 56 25 56 55 0 31-25 56-56 56s-56-25-56-56c0-30 25-55 56-55z m0 83c17 0 28-14 28-28s-14-28-28-28-28 14-28 28 11 28 28 28z" horiz-adv-x="1000" />
<glyph glyph-name="icon-26-ac" unicode="&#xe816;" d="m919 106c-2-6-8-6-11-6-2 0-5 0-8 3l-156 91v-163c0-9-5-14-13-14s-14 5-14 14v180l-206 120v-231l158-92c6-2 9-11 6-19-3-6-8-6-11-6-3 0-6 0-6 3l-144 83v-188c0-9-6-14-14-14s-14 5-14 14v186l-147-86c-3 0-6-3-8-3-6 0-9 3-12 5-2 6-2 14 6 20l161 94v234l-205-120v-180c0-9-6-14-14-14s-14 5-14 14v163l-153-94c-3 0-6-3-8-3-6 0-9 3-11 6-3 5-3 14 5 19l150 89-147 83c-6 6-8 14-6 23s11 8 20 5l161-91 208 119-205 119-164-97c-3 0-6-3-9-3-5 0-8 3-11 6-2 6-2 14 6 19l150 89-153 95c-8 5-11 14-5 19 2 6 11 9 19 6l156-92v164c0 8 5 14 13 14s14-6 14-14v-181l206-119v231l-167 97c-5 3-8 11-5 19 2 6 11 9 19 6l153-89v186c0 8 5 14 14 14s14-6 14-14v-192l150 92c5 3 14 3 19-6 3-5 3-13-5-19l-167-97v-228l205 119v181c0 8 6 14 14 14s14-6 14-14v-164l156 92c5 3 14 3 19-6 3-5 3-14-5-19l-156-92 142-83c5-3 8-11 5-20-2-5-8-5-11-5-3 0-5 0-5 3l-156 88-208-119 205-119 164 97c6 3 14 3 20-6 2-5 2-14-6-19l-150-89 156-92c5-3 8-11 2-16z" horiz-adv-x="1000" />
<glyph glyph-name="icon-25-heating" unicode="&#xe817;" d="m319 539c0 67-52 119-119 119s-117-52-117-119v-111h-61c-8 0-14-6-14-14 0-8 6-14 14-14h61v-78h-61c-8 0-14-5-14-14s6-14 14-14h61v-77h-61c-8 0-14-6-14-14s6-14 14-14h61v-58c-30-31-47-73-47-117 0-92 75-167 167-167s166 75 166 167c0 44-16 86-47 117v408z m-211-139h25v-78h-25v78z m95 28h-42v72c0 22 20 42 42 42s41-20 41-42v-400l20-19c19-17 28-42 28-64 0-50-39-89-89-89s-92 39-92 89c0 25 11 47 28 64l22 19v92h42c8 0 14 5 14 14s-6 13-14 13h-42v78h42c8 0 14 6 14 14s-9 11-14 11h-42v78h42c8 0 14 6 14 14-3 8-9 14-14 14z m-95-131h25v-78h-25v78z m234-280c0-78-64-142-142-142s-139 64-139 142c0 39 17 75 45 102l2 3v70h25v-81l-11-11c-22-22-36-53-36-83 0-64 53-117 117-117s116 53 116 117c0 33-13 61-36 83l-11 11v386c0 39-30 70-69 70s-70-31-70-70v-72h-25v111c0 50 42 92 92 92s92-42 92-92v-417l2-2c31-25 48-61 48-100z m91 700v-92c0-8-5-14-14-14s-13 6-13 14v92h-92c-8 0-14 5-14 14s6 13 14 13h92v92c0 8 5 14 13 14s14-6 14-14v-92h95c8 0 14-5 14-13s-9-14-14-14h-95z m339-178c0 67-53 119-119 119s-120-52-120-119v-111h-61c-8 0-14-6-14-14 0-8 6-14 14-14h61v-78h-61c-8 0-14-5-14-14s6-14 14-14h61v-77h-61c-8 0-14-6-14-14s6-14 14-14h61v-58c-30-31-47-73-47-117 0-92 75-167 167-167s166 75 166 167c0 44-16 86-47 117v408z m-211-242h25v-78h-25v78z m92 0c8 0 14 6 14 14s-6 11-14 11h-39c5 17 22 31 39 31 22 0 41-20 41-42v-211l20-19c19-17 28-42 28-64 0-50-39-89-89-89s-89 39-89 89c0 25 11 47 28 64l19 19v92h42c8 0 14 5 14 14s-6 13-14 13h-42v78h42z m141-280c0-78-63-142-141-142s-142 64-142 142c0 39 17 75 45 102l2 3v70h25v-81l-8-11c-22-22-36-53-36-83 0-64 53-117 117-117s116 53 116 117c0 33-14 61-36 83l-14 11v200c0 39-30 70-69 70-34 0-61-25-67-56h-25v78h92c8 0 14 5 14 14 0 8-6 14-14 14h-92v111c0 50 42 91 92 91s91-41 91-91v-417l3-3c31-30 47-66 47-105z m198 714c0-9-6-14-14-14h-211c-9 0-14 5-14 14s5 13 14 13h211c8 0 14-5 14-13z" horiz-adv-x="1000" />
<glyph glyph-name="icon-24-satellite" unicode="&#xe818;" d="m650 650c0 8 6 14 14 14 53 0 94-42 94-95 0-8-5-13-14-13-8 0-13 5-13 13 0 39-31 70-70 70-5-3-11 5-11 11z m14 78c89 0 158-72 158-159 0-8 6-13 14-13 8 0 14 5 14 13 0 103-83 187-186 187-8 0-14-6-14-14 0-9 6-14 14-14z m0 122c-8 0-14-6-14-14 0-8 6-14 14-14 139 0 255-114 255-255 0-9 6-14 14-14 9 0 14 5 14 14-3 158-128 283-283 283z m5-469l234-231-11-8c-86-81-200-125-320-125-41 0-80 5-119 16l-150-155h278c8 0 13-6 13-14 0-8-5-14-13-14h-298-44-170c-8 0-13 6-13 14 0 8 5 14 13 14h189v264c-2 2-8 8-11 11-178 175-186 458-19 641l8 12 239-237 131 3c5 20 25 34 44 34 28 0 47-23 47-48 0-19-14-39-30-44v-133z m-25 25v102c-5 0-8 3-13 6l-48-47 61-61z m31 150c0 5-3 8-3 11v-23c0 3 3 9 3 12z m-33 19l22 0c-3 3-8 3-11 3-6 0-9 0-11-3z m-139-31l58-58 47 47c-2 3-2 9-5 14l-100-3z m-75-505c-53 17-100 44-142 78v-220l142 142z m241 303l0 0-202 202-228 223c-147-175-139-434 25-595 53-53 117-89 186-111 6 3 11 3 14-3 0 0 0 0 0 0 36-8 72-14 111-14 108 0 208 39 289 109l-195 189z" horiz-adv-x="1000" />
<glyph glyph-name="icon-23-silverware" unicode="&#xe819;" d="m747 828c-86 0-153-111-153-253 0-100 34-189 89-228v-450c0-14 11-28 28-28h75c14 0 28 12 28 28v450c53 42 89 128 89 228-3 142-70 253-156 253z m42-461l-6-3v-464l-75 0v464l-5 3c-50 33-84 116-84 208 0 122 59 225 125 225 70 0 125-103 125-225 3-92-30-175-80-208z m-295 461c-83 0-147-111-147-253 0-100 34-189 86-231v-447c0-14 11-28 28-28h75c14 0 28 12 28 28v903l-6 6c-19 13-41 22-64 22z m42-928l-75 0v461l-5 3c-48 33-81 117-81 211 0 122 56 225 119 225 14 0 28-6 42-14v-886z m-244 928h-17c-14 0-28-11-28-28v-278h-3v278c0 14-11 28-27 28h-14c-14 0-28-11-28-28v-278h-6v278c0 14-11 28-27 28h-14c-14 0-28-11-28-28v-344c0-3 0-3 0-6 0-3 0-6 0-8 0-34 17-67 42-86v-456c0-14 11-28 27-28h78c14 0 28 11 28 28v456c28 19 42 52 42 86 0 2 0 5 0 8 0 3 0 3 0 6v344c2 17-11 28-25 28z m0-372l0 0 0-6c0-3 0-6 0-8 0-28-14-53-36-70l-6-3v-469l-78 0v472l-5 3c-23 14-36 42-36 69 0 3 0 6 0 9l0 3 0 347 13 0v-306h59l0 306 14 0v-306h58l0 306 14 0v-347z" horiz-adv-x="1000" />
<glyph glyph-name="icon-22-utils" unicode="&#xe81a;" d="m542 389c-48 47-109 75-175 75l-3 0c-133 0-245-108-247-245-3-136 108-247 244-250l3 0c133 0 244 109 247 245 0 67-25 128-69 175z m-178-392l-3 0c-122 3-219 103-217 222 3 120 100 217 220 217l3 0c58 0 114-25 155-67 42-41 64-97 61-155 0-120-100-217-219-217z m555 803c-22 0-55-17-83-47-36-36-61-84-39-106 3-3 11-8 22-8 23 0 56 17 84 47 36 36 61 83 39 106-6 2-11 8-23 8z m-36-94c-25-25-50-39-64-39-2 0-2 0-2 0-3 2 2 33 39 66 27 25 52 39 63 39 3 0 3 0 3 0 3-3-3-30-39-66z m117 44c0 25-8 50-28 67-16 19-41 27-69 27-28 0-53-11-72-30-3-3-6-6-9-11l-233-303c-64 50-142 81-222 81l-6 0c-194 0-358-162-361-359-3-200 158-366 358-369l6 0c197 0 361 161 364 358 0 81-25 158-72 222l311 242 11 8 0 0c14 23 22 45 22 67z m-636-869l-6 0c-186 2-333 155-333 341 3 184 153 334 336 334l6 0c77 0 152-28 211-78l3-3c5-3 8-8 11-11 2-3 8-8 11-11 8-9 14-14 19-22l0-3c47-61 75-136 72-214 3-183-147-333-330-333z m583 816l-308-241c-3 2-3 2-6 5-2 3-5 6-8 8-3 3-6 6-8 6-3 3-3 3-6 6l236 305c3 3 3 6 6 8 14 14 30 23 53 23h0c19 0 36-9 47-20 14-11 19-28 19-47 0-19-8-39-25-53z" horiz-adv-x="1000" />
<glyph glyph-name="icon-21-dishwasher" unicode="&#xe81b;" d="m933 850h-866c-36 0-67-31-67-67v-864c0-38 31-69 67-69h864c36 0 66 31 66 67v866c3 36-28 67-64 67z m-866-28h864c25 0 41-16 41-39v-111h-944v111c0 23 16 39 39 39z m866-944h-866c-23 0-39 16-39 39v727h461c0 0 0-2 0-2l0-156-142 0c0 0 0 0 0 0-8 0-14-5-14-14 0-8 6-14 14-14l311-2c0 0 0 0 0 0 9 0 14 5 14 13 0 9-5 14-14 14l-141 0 0 156c0 0 0 3 0 3h455v-725c0-23-16-39-39-39z m-61 819c28 0 53 22 53 53 0 28-22 53-53 53-28 0-53-22-53-53 3-28 25-53 53-53z m0 78c14 0 25-11 25-25s-11-25-25-25-25 11-25 25 11 25 25 25z m-141-78c27 0 52 22 52 53 0 28-22 53-52 53s-53-22-53-53c0-28 22-53 53-53z m0 78c13 0 25-11 25-25s-12-25-25-25-25 11-25 25 11 25 25 25z m-145-78c28 0 53 22 53 53 0 28-22 53-53 53-28 0-53-22-53-53 0-28 25-53 53-53z m0 78c14 0 25-11 25-25s-11-25-25-25-25 11-25 25 11 25 25 25z m-72-567v-52c0-9-6-14-14-14-8 0-14 5-14 14v52c0 9 6 14 14 14 8 0 14-5 14-14z m0 217v-53c0-8-6-14-14-14-8 0-14 6-14 14v53c0 8 6 14 14 14 8 0 14-6 14-14z m0-108v-53c0-8-6-14-14-14-8 0-14 6-14 14v53c0 8 6 14 14 14 8 0 14-6 14-14z m-131-98l-22-50c-3-5-8-8-11-8-3 0-3 0-6 0-5 3-11 11-8 17l20 50c2 5 11 11 16 8 9 0 14-8 11-17z m81 200l-20-50c-2-5-8-8-11-8-2 0-2 0-5 0-6 3-11 11-9 17l20 50c3 5 11 11 17 8 8-3 11-8 8-17z m-42-100l-19-50c-3-5-9-8-11-8-3 0-3 0-6 0-5 3-11 11-8 17l19 50c3 5 11 11 17 8 8 0 11-8 8-17z m153 45c-3 0-3 0-6 0-5 0-11 3-11 8l-19 50c-3 6 0 14 8 17 6 3 14 0 17-8l19-50c0-9-2-14-8-17z m39-100c-3 0-3 0-6 0-5 0-11 3-11 8l-19 50c-3 6 0 14 8 17 6 3 14 0 17-8l19-50c3-9 0-14-8-17z m50-83c3-6 0-14-8-17-3 0-3 0-6 0-6 0-11 3-11 8l-20 50c-2 6 0 14 9 17 8 3 14 0 16-8l20-50z m-406 100c6-6 6-14 0-20l-36-36c-3-3-5-3-8-3-3 0-6 0-8 3-6 6-6 14 0 19l38 39c0 3 9 3 14-2z m78 58l-39-39c-3-3-5-3-8-3-3 0-6 0-8 3-6 6-6 14 0 19l38 39c6 6 14 6 20 0 3-5 3-14-3-19z m20 39c-6 5-6 14 0 19l38 39c6 6 14 6 20 0 5-5 5-14 0-19l-39-39c-3-3-6-3-8-3s-9 0-11 3z m366-59c6-5 6-13 0-19-3-3-5-3-8-3-3 0-6 0-8 3l-39 39c-6 5-6 14 0 19 5 6 14 6 19 0l36-39z m75-75c6-5 6-13 0-19-3-3-5-3-8-3s-6 0-8 3l-39 39c-6 5-6 14 0 19 5 6 14 6 19 0l36-39z m-208 173c-6 5-6 14 0 19 5 6 14 6 19 0l39-39c6-5 6-14 0-19-3-3-5-3-8-3-3 0-6 0-8 3l-42 39z" horiz-adv-x="1000" />
<glyph glyph-name="icon-20-tv" unicode="&#xe81c;" d="m922 600h-116c-25 44-148 69-275 75l122 122-20 20-133-136-169 169-20-19 158-159c-127-3-250-28-275-75h-116c-36 0-64-28-64-64v-622c0-36 28-64 64-64h841c37 0 64 28 64 64v625c3 36-27 64-61 64z m-422 47c139 0 236-25 269-47h-538c33 22 130 47 269 47z m458-733c0-20-16-36-36-36h-844c-20 0-36 16-36 36v622c0 20 16 36 36 36h841c20 0 37-16 37-36v-622z m-844 36h772v550h-772v-550z m28 525h719v-497h-719v497z" horiz-adv-x="1000" />
<glyph glyph-name="icon-19-flat-tv" unicode="&#xe81d;" d="m953 744h-906c-28 0-47-19-47-44v-542c0-25 19-47 47-47h342c0 0 0-3 0-3 0-69-33-127-72-127h-56v-28h56 369 56v28h-56c-39 0-72 58-72 127 0 0 0 3 0 3h342c25 0 47 20 47 47v542c-3 25-22 44-50 44z m-325-763h-256c25 27 42 75 42 127 0 0 0 3 0 3h169c0 0 0-3 0-3 3-52 20-100 45-127z m344 177c0-11-8-19-19-19h-336-228-342c-11 0-19 8-19 19v542c0 11 8 19 19 19h909c8 0 16-8 16-19v-542z m-66 103c-28 0-53-22-53-53 0-27 22-52 53-52s52 22 52 52c-2 28-25 53-52 53z m0-78c-14 0-25 11-25 25 0 14 11 25 25 25s25-11 25-25c-3-14-12-25-25-25z" horiz-adv-x="1000" />
<glyph glyph-name="icon-18-dryer" unicode="&#xe81e;" d="m500 600c-186 0-336-150-336-336s150-336 336-336 336 150 336 336-150 336-336 336z m0-644c-169 0-308 138-308 308s139 308 308 308c169 0 308-139 308-308s-139-308-308-308z m433 894h-866c-36 0-67-31-67-67v-864c0-38 31-69 67-69h864c36 0 66 31 66 67v866c3 36-28 67-64 67z m-866-28h864c25 0 41-16 41-39v-111h-944v111c0 23 16 39 39 39z m866-944h-866c-23 0-39 16-39 39v727h944v-725c0-25-16-41-39-41z m-61 819c28 0 53 22 53 53s-22 53-53 53c-28 0-53-22-53-53s25-53 53-53z m0 78c14 0 25-11 25-25s-11-25-25-25-25 11-25 25 11 25 25 25z m-141-78c27 0 52 22 52 53s-22 53-52 53c-28 0-53-22-53-53s22-53 53-53z m0 78c13 0 25-11 25-25s-12-25-25-25-25 11-25 25 11 25 25 25z m-145-78c28 0 53 22 53 53s-22 53-53 53c-28 0-53-22-53-53s25-53 53-53z m0 78c14 0 25-11 25-25s-11-25-25-25c-14 0-25 11-25 25s11 25 25 25z m22-361l-11 5c-58 34-136 34-194 0l-11-5 86-147-172 0 0-14c0-34 8-67 25-97 16-31 41-53 72-73l11-5 86 147 86-147 11 5c31 17 53 42 72 73 17 30 25 63 25 97l0 14-169 0 83 147z m-36-11l-72-122-72 125c44 19 100 19 144-3z m-166-289c-20 14-37 33-50 53-12 22-20 44-23 69l142 0-69-122z m238 55c-11-22-30-38-50-52l-72 122 142 0c0-25-6-50-20-70z m-144 359c-144 0-264-120-264-264s120-264 264-264c144 0 264 119 264 264s-120 264-264 264z m0-500c-131 0-236 105-236 236s105 236 236 236c131 0 236-106 236-236s-105-236-236-236z" horiz-adv-x="1000" />
<glyph glyph-name="icon-17-washing" unicode="&#xe81f;" d="m500 528c-144 0-264-120-264-264s120-264 264-264c144 0 264 119 264 264s-120 264-264 264z m-236-272c0-12 0-20 3-31 0 11-3 22-3 31z m236-228c-117 0-214 86-233 200 22-9 47-11 80-11 72 0 109 22 145 44 36 22 69 42 139 42 50 0 80-11 105-25 0 11-3 22-3 30-25 11-58 20-102 20-75 0-117-25-153-45-36-22-67-39-131-39-36 0-61 6-83 14 0 3 0 6 0 9 0 130 105 236 236 236 131 0 236-106 236-236 0-134-105-239-236-239z m0 572c-186 0-336-150-336-336s150-336 336-336 336 150 336 336-150 336-336 336z m0-644c-169 0-308 138-308 308s139 308 308 308c169 0 308-139 308-308s-139-308-308-308z m433 894h-866c-36 0-67-31-67-67v-864c0-38 31-69 67-69h864c36 0 66 31 66 67v866c3 36-28 67-64 67z m-866-28h864c25 0 41-16 41-39v-111h-944v111c0 23 16 39 39 39z m866-944h-866c-23 0-39 16-39 39v727h944v-725c0-25-16-41-39-41z m-61 819c28 0 53 22 53 53s-22 53-53 53c-28 0-53-22-53-53s25-53 53-53z m0 78c14 0 25-11 25-25s-11-25-25-25-25 11-25 25 11 25 25 25z m-141-78c27 0 52 22 52 53s-22 53-52 53-53-22-53-53 22-53 53-53z m0 78c13 0 25-11 25-25s-12-25-25-25-25 11-25 25 11 25 25 25z m-145-78c28 0 53 22 53 53s-22 53-53 53c-28 0-53-22-53-53s25-53 53-53z m0 78c14 0 25-11 25-25s-11-25-25-25-25 11-25 25 11 25 25 25z" horiz-adv-x="1000" />
<glyph glyph-name="icon-32-pool" unicode="&#xe820;" d="m392 383c8 0 14-5 14-14s-6-13-14-13h-239c-9 0-14 5-14 13s5 14 14 14h239z m261-272h153c8 0 13 6 13 14s-5 14-13 14h-153c-9 0-14-6-14-14s5-14 14-14z m-420 89c0-8 6-14 14-14h314c8 0 14 6 14 14 0 8-6 14-14 14h-314c-8 0-14-6-14-14z m767 264c0 0 0 0 0 0 0 0 0 0 0 0v-150-147-148-83c0-8-6-14-14-14h-194-195-194-195-194c-8 0-14 6-14 14v83 148 147 147c0 0 0 0 0 0 0 0 0 0 0 0v86c0 9 6 14 14 14h192 191 0 84v72c0 0 0 0 0 0 0 0 0 0 0 0v75c0 0 0 0 0 0 0 23-20 42-42 42s-42-17-42-39c0-8-5-14-14-14s-11 6-11 14c0 39 31 70 70 70 36 0 66-31 69-67 0 0 0 0 0 0v-61h261v58c0 22-19 42-41 42-23 0-42-20-42-42 0-8-6-14-14-14s-14 6-14 14c0 39 31 70 70 70s69-31 69-70v-147h189c8 0 14-6 14-14v-86z m-28-14h-55v-122h55v122z m0-147h-55v-122h55v122z m-55-270h55v123h-55v-123z m55 503h-175v-58h175v58z m-203 0h-261v-58h261v58z m-261-144h261v58h-261v-58z m0 230v-58h261v58h-261z m-27-86h-70v-58h70v58z m-84-86h-191-95v-136-147-134h97 195 194 195 97v134 147 136h-92v-161c0-8-5-14-14-14s-14 6-14 14v75h-261v-61h161c9 0 14-6 14-14s-5-14-14-14h-269c-8 0-14 6-14 14s6 14 14 14h83v75c0 0 0 0 0 0s0 0 0 0v72h-86l0 0z m-369-269h55v122h-55v-122z m55 269h-55v-122h55v122z m-55-417h55v123h-55v-123z m358 503h-167v-58h167v58z m-358-58h166v58h-166v-58z m0-531h166v59h-97-69v-59z m194 0h167v59h-167v-59z m195 0h166v59h-166v-59z m194 0h167v59h-167v-59z m361 59h-72-94v-59h166v59z" horiz-adv-x="1000" />
<glyph glyph-name="icon-33-jacuzzi" unicode="&#xe821;" d="m319 722c-5 14-13 31 3 56 3 5 11 5 17 3 5-3 5-12 3-17-11-14-6-20 0-33 5-12 14-28 8-53 0-6-6-9-11-9 0 0-3 0-3 0-5 0-11 9-8 14 3 17-3 28-9 39z m184-58c0-6 3-11 8-14 0 0 3 0 3 0 5 0 11 3 11 8 3 25-3 39-8 53-6 14-9 20 0 33 2 6 2 12-3 17-6 3-11 3-17-3-16-25-8-41-3-55 6-14 12-22 9-39z m147 8c0-5 3-11 8-14 0 0 3 0 3 0 6 0 11 3 11 9 6 25-3 39-8 52-6 14-8 20 0 34 3 3 3 11-3 14-5 2-11 2-17-3-16-25-8-42-2-56 5-11 11-19 8-36z m-236-22c0-6 3-11 8-14 0 0 3 0 3 0 6 0 11 3 11 8 11 48-5 78-17 103-13 28-22 47 3 84 3 5 3 11-3 16-5 3-11 3-16-3-34-47-17-77-3-105 11-25 22-50 14-89z m161 0c0-6 3-11 8-14 0 0 3 0 3 0 6 0 11 3 11 8 11 48-5 78-16 103-14 28-23 47 2 84 0 5 0 13-5 16-6 3-11 3-17-3-30-47-17-77-3-105 11-25 25-50 17-89z m-136-214c8-8 19-14 30-14 12 0 23 6 31 14 8-8 19-14 31-14s22 6 30 14c8-8 20-14 31-14h11v22h-11c-11 0-20 9-20 20v11h-22v-11c0-11-8-20-19-20s-20 9-20 20v11h-22v-11c0-11-8-20-20-20-11 0-19 9-19 20v11h-22v-11c0-11-9-20-20-20h-11v-22h11c11 0 23 6 31 14z m133-125v11h-22v-11c0-11-8-19-19-19s-20 8-20 19v11h-22v-11c0-11-8-19-20-19-11 0-19 8-19 19v11h-22v-11c0-11-9-19-20-19h-11v-23h11c11 0 23 6 31 14 8-8 19-14 30-14 12 0 23 6 31 14 8-8 19-14 31-14s22 6 30 14c8-8 20-14 31-14h11v23h-11c-11 0-20 8-20 19z m61 78v11h-22v-11c0-11-8-20-19-20-11 0-20 9-20 20v11h-22v-11c0-11-8-20-19-20s-20 9-20 20v11h-22v-11c0-11-8-20-20-20-11 0-19 9-19 20v11h-22v-11c0-11-9-20-20-20-11 0-19 9-19 20v11h-22v-11c0-11-9-20-20-20h-11v-22h11c11 0 22 6 31 14 8-8 19-14 30-14s23 6 31 14c8-8 19-14 30-14 12 0 23 6 31 14 8-8 19-14 31-14s22 6 30 14c8-8 20-14 31-14s22 6 30 14c9-8 20-14 31-14h11v22h-11c-11 0-20 9-20 20z m284-33v-267c0-133-186-239-417-239-231 0-417 108-417 239v267c0 133 186 238 417 238 231 0 417-105 417-238z m-661-195c-70 28-123 70-150 117v-189c0-70 58-131 147-170l3 242c0 0 0 0 0 0z m230-44c-75 2-144 14-203 36v-242c59-22 128-33 203-36l0 242c0 0 0 0 0 0z m231 33c-61-22-131-33-203-36 0 0 0 0 0 0v-242c75 3 144 14 203 36v242z m177 128c-27-47-80-89-150-117 0 0 0 0 0 0v-242c92 39 148 100 148 170v189z m0 78c0 119-177 216-394 216s-394-97-394-216c0-120 177-217 394-217s394 97 394 217z m-36 0c0-109-158-195-358-195-203 0-358 86-358 195 0 108 158 194 358 194 203 0 358-86 358-194z m-22 0c0 94-150 172-336 172-186 0-336-78-336-172 0-95 150-173 336-173 186 0 336 78 336 173z m-580 250c0-6 2-12 8-14 0 0 3 0 3 0 5 0 11 2 11 8 11 47-6 78-17 103-14 28-22 47 3 83 3 6 3 11-3 17-5 3-14 3-17-3-33-47-16-78-2-106 11-25 22-50 14-88z m477 0c0-6 3-12 9-14 0 0 2 0 2 0 6 0 12 2 12 8 11 47-6 78-17 103-14 28-22 47 3 83 2 6 2 11-3 17-6 3-11 3-17-3-33-47-19-78-3-106 9-25 23-50 14-88z" horiz-adv-x="1000" />
<glyph glyph-name="icon-34-bbq" unicode="&#xe822;" d="m525 639c-6 11-14 30 3 53 5 5 14 8 19 2 6-5 9-13 3-19-8-11-6-14 0-25 6-11 14-25 8-47 0-6-5-11-14-11 0 0-2 0-2 0-9 2-11 8-11 16 2 14 0 23-6 31z m164-50c-3-8 3-14 11-17 0 0 3 0 3 0 5 0 11 6 14 11 5 23-3 39-9 48-5 11-8 13 0 25 6 5 3 13-2 19-6 6-14 3-20-3-17-25-8-41-3-53 3-8 9-16 6-30z m130 8c-2-8 3-14 12-16 0 0 2 0 2 0 6 0 11 5 14 11 6 22-3 39-8 47-6 11-8 14 0 25 5 5 3 14-3 19-5 6-14 3-19-2-17-25-9-42-3-53 5-9 8-17 5-31z m-350-58c-2-8 3-14 12-17 0 0 2 0 2 0 6 0 11 6 14 11 9 45-5 73-16 95-12 25-20 41 2 72 6 6 3 14-2 19-6 6-14 3-20-2-30-45-17-73-3-98 9-25 20-47 11-80z m142 39c-3-9 3-14 11-17 0 0 3 0 3 0 6 0 11 6 14 11 8 45-6 72-17 95-11 25-19 41 3 72 6 5 3 14-3 19-5 6-14 3-19-2-34-45-20-73-6-100 11-23 22-42 14-78z m142 0c-3-9 3-14 11-17 0 0 3 0 3 0 5 0 11 6 14 11 8 45-6 72-17 95-14 25-20 41 0 72 5 5 3 14-3 19-5 6-14 3-19-2-31-45-17-73-3-100 11-23 22-42 14-78z m141-39c-2-8 3-14 12-17 0 0 2 0 2 0 6 0 11 6 14 11 9 42-5 73-16 95-12 25-20 41 2 72 6 6 3 14-2 19-6 6-14 3-20-2-30-45-17-73-3-98 9-25 20-47 11-80z m-144-408l153-153c5-6 5-14 0-20-3-2-6-2-9-2-2 0-5 0-8 2l-169 170c0 0 0 0-3 0v-236c0-9-6-14-14-14s-14 5-14 14v236c0 0-3 0-3 0l-169-170c-3-2-6-2-8-2s-6 0-9 2c-5 6-5 14 0 20l153 153c-125 22-222 127-233 258-23-11-45-20-75-20 0 0 0 0 0 0-36 0-73 9-109 28-25-19-55-30-89-30-38 0-75 14-100 41-50 50-55 128-13 186-37 75-42 150-6 200 0 12 3 17 6 23 2 2 8 5 16 5 42 0 145-89 228-175 25-28 128-136 158-203 59 34 234 37 273 37 50 0 291-3 291-59 0-8-5-14-14-19 0-139-102-250-233-272z m222 288c-8 6-30 12-64 17v-36c0 0 3 0 3 0 0 0 0 0 3 0 28 6 47 11 58 17-3 2-3 2 0 2-3 0-3 0 0 0z m-211-30c8 0 20 0 28 0v53c0 2 0 2 0 5-22 0-45 3-67 3v-64c11 0 22 0 34 0 0 3 2 3 5 3z m-80 0c5 0 8 0 13 0v64c-25 0-47 0-66-3 0-3 0-3 0-6v-55c8 0 19 0 28 0 2 0 2 0 5 0 6 0 14 0 20 0z m-78 55c0 0 0 3 0 3-25-3-47-3-67-5v-45c3 0 8 0 11-3 0 0 0 0 3 0 6 0 11 0 17-2 0 0 0 0 0 0 5 0 14 0 19-3 0 0 0 0 0 0 6 0 8 0 14 0v55z m-95-5c-33-6-55-11-64-17 9-5 31-14 64-19v36z m373-42v45c-20 2-42 5-67 5 0 0 0-3 0-3v-52c8 0 14 0 22 2 6 0 8 0 14 0 8 0 17 3 25 3 0 0 3 0 6 0z m-828 397c0 0 0 0 0 0 3-11 11-27 28-52 0 0 2-3 2-6 3-5 9-11 11-17 6-8 12-13 17-22 3-3 3-5 6-8 5-8 14-17 22-28 3-3 3-3 5-5 9-12 17-20 28-31 3-3 3-3 3-6 11-11 22-25 36-38 11-14 25-25 36-37 70-66 128-113 159-127 0 0 0 0 0 0 2-3 5-3 8-3 0 0 0 0 0 0 0 0 0 0 0 0-6 25-61 105-158 211-103 111-181 164-203 169z m153-383c-6 3-12 6-17 11-3 3-8 6-11 9-6 2-11 5-14 8-6 3-8 8-14 11-3 3-8 6-11 8-8 9-17 14-25 23 0 0 0 0 0 0 0 0 0 0 0 0 0 0 0 0 0 0 0 0 0 0-3 2-28 28-50 56-67 84-25-45-19-103 20-142 22-22 50-33 83-33 20 0 42 8 59 19 0 0 0 0 0 0z m177-8c0 0-2 0-2 3-6 2-12 5-17 8-3 0-3 3-6 3-5 2-11 8-16 11-3 0-3 3-6 3-5 5-14 11-22 16 0 0-3 0-3 3-17 14-30 28-47 42 0 0 0 0-3 2-17 14-30 31-47 45-3 3-3 3-6 5-5 6-11 12-19 20 0 0-3 3-3 3-5 11-17 25-28 36-2 3-5 5-8 8-8 11-19 20-28 31 0 2-3 2-3 5-8 11-19 22-27 34-3 2-6 5-6 8-8 8-11 14-17 22-2 3-5 6-5 8 0 3-3 3-3 3 0 0 0 3-3 3-8 14-16 28-22 36-22-47-5-119 39-189 3-3 6-5 6-8 5-8 11-17 16-22 3-3 6-6 6-9 8-11 16-19 28-30 63-64 144-106 211-106 0 0 0 0 0 0 16 0 30 0 41 6z m578-17c-3 0-8-3-11-3-44-11-106-16-158-19-3 0-6 0-9 0-11 0-19 0-27 0-3 0-6 0-12 0-13 0-27 0-33 0-8 0-19 0-33 0-3 0-6 0-9 0-8 0-19 0-30 0-3 0-6 0-6 0-50 3-114 8-158 19-6 0-8 3-14 3 0 0-3 0-3 0-2 0-8 3-11 3 11-133 122-239 259-239 130 3 241 106 255 236z" horiz-adv-x="1000" />
<glyph glyph-name="icon-35-concierge" unicode="&#xe823;" d="m975 114h-950c-14 0-25-11-25-25v-47c0-14 11-25 25-25h950c14 0 25 11 25 25v47c0 14-11 25-25 25z m-3-72l-944 0-3 47 947 0v-47z m-883 105h822c8 0 14 6 14 14 0 203-144 375-336 414l72 72c8 9 8 22 0 31-3 5-5 5-11 5h-306c-2 0-8-2-8-2-8-9-8-23 0-31l72-72c-191-42-333-211-333-414 0-8 6-17 14-17z m278 511h264l-75-75c-9 0-14 3-23 3-22 3-44 3-66 0-9 0-17-3-23-3l-77 75z m72-105c0 0 0 0 0 0 11 3 19 3 28 3 11 0 22 2 33 2 11 0 19 0 31-2 8 0 16-3 27-3 0 0 0 0 0 0 186-28 334-186 339-381h-794c5 195 150 353 336 381z" horiz-adv-x="1000" />
<glyph glyph-name="icon-36-cleaning" unicode="&#xe824;" d="m475 733c19 0 125 3 125 42 0 39-103 42-125 42s-125-3-125-42c3-42 106-42 125-42z m0 56c50 0 83-8 94-14-11-6-44-14-94-14s-83 8-94 14c11 6 44 14 94 14z m294-20v6c0 6-2 11-5 17l0 2 0 0c-36 45-195 56-283 56-106 0-295-17-295-75v-492c0-25 28-41 86-55l-178-206 556-172 6 6c16 19 130 141 200 227 2 3 5 3 8 9 0 0 0 2 0 2 22 31 39 53 42 67 16 56-120 545-137 608z m-291 53c175 0 264-33 264-47 0-14-89-47-264-47-175 0-264 33-264 47-3 14 89 47 264 47z m-267-539v456c0 0 3 0 3-3 0 0 3 0 3-3 5 0 8 0 14-2 2 0 2 0 5-3 11-3 22-9 36-11 3 0 3 0 6 0 5 0 11-3 14-3 2 0 2 0 5 0 6 0 11-3 17-3 0 0 3 0 3 0 8 0 14-3 22-3 3 0 3 0 5 0 6 0 12 0 17-2 3 0 6 0 6 0 5 0 11 0 16-3 3 0 3 0 6 0 8 0 14 0 22-3 0 0 3 0 3 0 5 0 11 0 17 0 2 0 5 0 5 0 6 0 8 0 14 0 3 0 3 0 6 0 5 0 11 0 16 0 9 0 14 0 22 0 3 0 6 0 9 0 5 0 11 0 16 0 3 0 6 0 9 0 5 0 11 0 16 0 3 0 6 0 9 0 8 0 14 0 22 3 3 0 3 0 6 0 8 0 19 3 27 3 3 0 6 0 6 0 5 0 14 2 19 2 3 0 6 0 9 3 5 0 11 3 16 3 3 0 6 0 9 3 5 0 11 2 16 2 3 0 3 0 6 3l-161-186c-3 0-3-3-6-5l-244-284c-50 17-67 31-67 36z m670-116c-3-9-17-31-37-56l-13 6c-9 2-14-3-17-9-3-8 3-14 8-16l6-3c-50-64-128-147-184-208l-502 155 161 186 0 0 19 25 22-5c0 0 3 0 3 0 6 0 11 2 14 8 3 8-3 14-8 17l-11 0 211 244 16-5c3 0 3 0 6 0 6 0 11 2 14 8 3 8-3 14-8 17l-6 2 172 206c25-89 53-195 78-292l-3 0c-8 3-14-3-16-8s2-14 8-17l19-5c31-125 53-231 48-250z m-203-17c-3-6-9-8-14-8 0 0-3 0-3 0l-53 14c-8 2-11 8-8 16 3 9 8 11 17 9l52-17c9 0 12-8 9-14z m105-33c-2-6-8-9-14-9 0 0-2 0-2 0l-53 17c-8 3-11 8-8 17 2 8 8 11 16 8l53-17c8-2 11-11 8-16z m-316 97c-3-6-9-8-14-8 0 0-3 0-3 0l-53 16c-8 3-11 9-8 17 3 8 8 11 17 8l52-16c6-3 11-9 9-17z m105-33c-3-6-8-9-14-9 0 0-2 0-2 0l-53 17c-9 3-11 8-9 17 3 8 9 11 17 8l53-17c5 0 11-8 8-16z m136 291c3 9 11 11 17 9l50-17c8-3 11-11 8-17-2-5-8-8-14-8-2 0-2 0-5 0l-50 17c-6 2-8 8-6 16z m-25 9c-2-6-8-9-14-9-2 0-2 0-5 0l-47 17c-9 3-11 11-9 17 3 8 11 11 17 8l50-17c8-3 11-11 8-16z" horiz-adv-x="1000" />
<glyph glyph-name="icon-37-restroom" unicode="&#xe825;" d="m325 631h-25l-36 19c11 11 17 28 17 44 0 39-34 73-73 73-39 0-72-34-72-73 0-16 6-33 17-44l0 0-36-19h-25c-20 0-36-17-36-37v-366c0-20 16-36 36-36 2 0 8 0 11 2v-211c0-25 22-47 47-47 25 0 47 22 47 47v289h25v-291c0-25 22-48 47-48 25 0 48 23 48 48v211c2 0 8-3 11-3 19 0 36 17 36 36v367c-3 22-20 39-39 39z m-117 111c28 0 48-23 48-48s-20-50-48-50-47 23-47 50 20 48 47 48z m48-100c0 0 0-3 0 0 0-3 0 0 0 0z m83-417c0-6-6-11-11-11-6 0-11 5-11 8v322l0 12h-25v-331c0 0 0-3 0-3v-241c0-14-11-25-25-25-14 0-25 11-25 25v313h-70v-313c0-14-11-25-25-25s-25 11-25 25v563l0 12h-19v-331c0-6-6-11-11-11-6 0-11 5-11 11v367c-3 8 2 14 11 14h33l47 27c0 0 0 0 0 0 11-8 22-11 36-11 14 0 28 3 39 11l47-27h34c8 0 14-6 14-14v-367z m-178 414c0 0 0 0 0 0 0 0 0 0 0 0z m714-47c0 19-17 36-36 36h-25l-36 22c11 11 16 28 16 44 0 39-33 73-72 73-39 0-72-34-72-73 0-16 6-33 17-44l0 0-36-19h-25c-20 0-37-17-37-37 0-5-47-241-72-369 0-19 17-36 36-36 0 0 3 0 3 0l0 0h81v-208c0-25 22-48 47-48 25 0 47 23 47 48v208h25v-208c0-25 22-48 47-48 25 0 48 23 48 48v208h77l0 0c3 0 3 0 6 0 19 0 36 17 36 39-28 125-75 361-75 364z m-153 150c28 0 47-23 47-48s-22-50-47-50-47 23-47 48 19 50 47 50z m47-100c0 0 0-3 0 0 0-3 0 0 0 0z m142-428c-5 0-11 5-11 11l-61 269-14 62h-25l75-342h-72v-233c0-14-11-25-25-25-14 0-25 11-25 25v233h-72v-233c0-14-12-25-25-25s-17 11-17 25v233h-72c0 3 2 5 2 8l70 320 3 14h-25l-73-331 0-6c-2-5-5-8-11-8-5 0-11 6-11 8 72 367 72 370 72 370 0 8 6 14 14 14h34l47 28c0 0 0 0 0 0 5-6 19-9 33-9 14 0 28 3 39 11l47-27h34c8 0 14-6 14-14 0-3 0-3 72-367-6-6-11-11-17-11z m-239 425c0 0 0 0 0 0 0 0 0 0 0 0z m-194 183v-944c0-9-6-14-14-14s-14 5-14 14v944c0 9 6 14 14 14s14-5 14-14z" horiz-adv-x="1000" />
<glyph glyph-name="icon-38-bathroom" unicode="&#xe826;" d="m803 836v-972c0-8-6-14-14-14-8 0-14 6-14 14v958h-69l-106-105 100-100c6-6 6-14 0-20-3-3-6-3-8-3-3 0-9 0-9 3l-219 222c-6 6-6 14 0 20 5 5 14 5 19 0l100-103 111 111c0 0 6 3 9 3h89c5 0 11-6 11-14z m-303-200c3-3 6-3 8-3 3 0 6 0 9 3l39 39c5 6 5 14 0 19-6 6-14 6-20 0l-36-38c-6-6-6-14 0-20z m-114-94l-39-39c-5-6-5-14 0-20 3-2 6-2 9-2s5 0 8 2l39 39c5 6 5 14 0 20-3 2-11 2-17 0z m95 75c-6 5-14 5-20 0l-39-39c-5-6-5-14 0-20 3-2 6-2 9-2 2 0 5 0 8 2l39 39c8 6 8 14 3 20z m-170 30l-50-19c-8-3-11-11-8-20 3-5 8-8 14-8 2 0 2 0 5 0l50 19c6 3 11 12 9 17-6 11-14 14-20 11z m200 84l-50-20c-5-3-11-11-8-17 3-8 8-11 11-11 3 0 3 0 5 0l50 20c9 5 12 14 9 19-3 9-11 11-17 9z m-83-50c-3 5-11 11-17 8l-50-22c-5-3-11-11-8-17 3-6 8-8 11-8 3 0 3 0 5 0l50 19c9 6 12 14 9 20z m78-217c-6 3-14 0-17-8l-22-50c-3-6 0-14 8-17 3 0 3 0 6 0 5 0 11 3 11 8l19 50c3 6 0 14-5 17z m41 100c-5 3-14 0-16-8l-20-50c-3-6 0-14 8-17 3 0 3 0 6 0 6 0 11 3 11 8l20 50c0 6-3 14-9 17z m42 100c-6 3-14 0-17-8l-19-50c-3-6 0-14 8-17 3 0 3 0 6 0 5 0 11 3 11 8l19 50c0 6-3 11-8 17z m-164 75h53c8 0 14 5 14 14s-6 14-11 14h-53c-9 0-14-6-14-14s5-14 11-14z m-108 0h52c9 0 14 5 14 14s-5 14-11 14h-53c-8 0-13-6-13-14s5-14 11-14z m-39 14c0 8-6 14-14 14h-56c-5 0-11-6-11-14s6-14 11-14h53c11 0 17 5 17 14z m339-234c-9 0-14-5-14-13v-53c0-9 5-14 14-14 8 0 14 5 14 14v53c0 8-6 13-14 13z m0-108c-9 0-14-5-14-14v-53c0-8 5-13 14-13 8 0 14 5 14 13v53c0 9-6 14-14 14z m0 217c-9 0-14-6-14-14v-53c0-8 5-14 14-14 8 0 14 6 14 14v53c0 8-6 14-14 14z" horiz-adv-x="1000" />
<glyph glyph-name="icon-39-garden" unicode="&#xe827;" d="m875 472c0 61-50 109-108 109h-3l3 2c19 20 33 48 33 78s-11 56-33 78c-20 19-48 30-78 30s-58-11-78-30l-3-3v6c0 58-50 108-108 108s-111-50-111-108v-3l-3 3c-19 19-47 30-78 30s-55-11-77-30c-42-42-42-111 0-156l5-5h0c-61 0-108-50-108-109 0-61 50-108 108-108-42-42-42-111 0-153 20-19 47-33 78-33 28 0 55 11 78 30 0-33 16-61 39-80 0-6 0-9 0-14 0-33 5-64 16-92-19 9-41 14-61 14-50 0-100-28-125-72l-3-6 3-5c25-45 72-72 125-72 45 0 89 22 114 58 47-53 117-86 194-86h14v78h-14c-44 0-83 13-113 38 36 0 72 17 97 42 36 36 50 89 36 139l-3 6-8 2c-50 14-103 0-139-36-22-22-36-53-42-83-8 19-14 42-16 64 55 3 102 50 102 108 20-19 48-30 75-30 31 0 56 11 78 30 42 42 42 108 3 153h0c61 0 111 47 111 108z m-492-566c-39 0-75 19-97 52 22 34 58 53 97 53s75-19 98-53c-23-33-59-52-98-52z m295-28c-75 5-142 44-184 103 0 0 0 0 0 0-25 36-41 80-41 130 8-3 16-5 25-8 3-47 19-89 47-125l0-6 3 0c36-41 89-69 147-72v-22z m-95 222c28 28 67 39 106 33 8-39-6-77-33-105-23-22-53-34-84-34-8 0-14 0-22 3-6 36 6 78 33 103z m159 247c33-33 33-83 0-116-31-31-86-31-117 0l-44 44v-64c0-44-37-83-84-83-3 0-8 0-11 0-11 0-19 5-28 8 0 0 0 0 0 0-2 3-5 3-8 6l-3 2c-19 17-30 39-30 67v64l-45-44c-30-31-86-31-116 0-34 33-34 83 0 116l44 45h-64c-44 0-83 36-83 83s36 83 83 83h67l-50 48c-34 33-34 83 0 116 30 31 86 31 116 0l48-50v70c0 44 36 83 83 83 44 0 83-36 83-83v-70l48 47c30 31 86 31 116 0 17-16 25-36 25-58s-8-42-25-58l-47-47h67c44 0 83-37 83-84s-36-83-83-83h-64l39-42z m-242 314c-106 0-189-86-189-189s86-189 189-189 189 86 189 189-83 189-189 189z m0-353c-89 0-164 73-164 164s72 164 164 164 164-72 164-164-75-164-164-164z m0 295c-72 0-131-59-131-131s59-130 131-130c72 0 131 58 131 130s-59 131-131 131z m0-234c-58 0-103 48-103 103s47 103 103 103 103-47 103-103-45-103-103-103z" horiz-adv-x="1000" />
<glyph glyph-name="icon-40-views" unicode="&#xe828;" d="m997 356c-91 191-286 313-497 313s-406-122-497-313l-3-6 3-6c91-191 286-313 497-313s406 122 497 313l3 6-3 6z m-497-300c-200 0-383 113-469 294 86 178 269 294 469 294s383-116 469-294c-86-178-269-294-469-294z m0 541c-136 0-247-111-247-247 0-136 111-247 247-247s247 111 247 247c0 136-111 247-247 247z m0-466c-122 0-219 100-219 219s100 219 219 219 219-100 219-219-97-219-219-219z m0 375c-86 0-156-70-156-156 0-86 70-156 156-156 86 0 156 70 156 156 0 86-70 156-156 156z m0-284c-69 0-128 59-128 128 0 69 59 128 128 128 69 0 128-59 128-128 0-69-59-128-128-128z m-17 189c0-19-14-33-33-33s-33 14-33 33 14 33 33 33 33-13 33-33z" horiz-adv-x="1000" />
<glyph glyph-name="icon-41-single" unicode="&#xe829;" d="m614 814h-228c-44 0-80-36-80-81v-33c0-44 36-81 80-81h228c44 0 80 37 80 81v33c0 45-36 81-80 81z m-281-114v33c0 20 9 36 23 45l8-11c11-14 17-34 17-50 0-17-6-36-17-50l-8-11 5-3c-17 8-28 25-28 47z m53-56c-3 0-3 0-5 0l2 6c14 19 20 42 20 64 0 22-6 47-20 64l-2 5c0 0 2 0 2 0h228c3 0 3 0 6 0l-3-5c-14-20-20-42-20-64 0-22 6-47 20-64l3-6c-3 0-3 0-6 0h-225z m281 56c0-19-11-36-28-47l5 3-8 11c-11 14-17 33-17 50 0 16 6 36 17 50l8 11c14-11 23-25 23-45v-33z m66-89v172c0 36-30 67-66 67h-334c-36 0-66-31-66-67v-172h-28v-192h28v-500c0-36 30-66 66-66h334c36 0 66 30 66 66v500h28v192h-28z m-439 172c0 23 17 39 39 39h334c22 0 41-19 41-41v-173h-414v175z m412-866c0-23-20-42-42-42h-331c-22 0-41 19-41 42v500h414v-500z m27 527h-466v139h466v-139z" horiz-adv-x="1000" />
<glyph glyph-name="icon-42-twin" unicode="&#xe82a;" d="m372 811h-228c-44 0-80-36-80-80v-34c0-44 36-80 80-80h225c45 0 81 36 81 80v34c3 44-33 80-78 80z m-280-114v34c0 19 8 33 22 44l8-11c11-14 17-31 17-50 0-17-6-36-14-50l-11-11 5-3c-16 8-27 25-27 47z m52-53c-2 0-2 0-5 0l3 6c14 19 19 42 19 64 0 22-5 44-19 64l0 5c0 0 2 0 2 0h225c3 0 3 0 6 0l-3-5c-14-20-19-42-19-64 0-22 5-45 19-64l3-6c-3 0-3 0-6 0h-225z m281 53c0-19-11-36-28-47l3 3-8 11c-11 14-14 30-14 50 0 17 5 36 14 50l8 11c14-8 22-25 22-44v-34z m431 114h-225c-45 0-81-36-81-80v-34c0-44 36-80 81-80h225c44 0 80 36 80 80v34c0 44-36 80-80 80z m-281-114v34c0 19 8 33 22 44l9-11c11-14 13-31 13-50 0-17-5-36-13-50l-9-11 6-3c-17 8-28 25-28 47z m53-53c-3 0-3 0-6 0l3 6c14 19 19 42 19 64 0 22-5 44-19 64l-3 5c0 0 3 0 3 0h225c3 0 3 0 6 0l-3-5c-14-20-20-42-20-64 0-22 6-45 20-64l3-6c-3 0-3 0-6 0h-222z m280 53c0-19-11-36-27-47l2 3-8 11c-11 14-14 30-14 50 0 17 6 36 14 50l8 11c14-8 23-25 23-44v-34z m64-89v173c0 36-30 66-66 66h-328c-36 0-67-30-67-66v-173h-19v173c0 36-31 66-67 66h-331c-38 0-66-30-66-66v-173h-28v-191h28v-498c0-36 30-66 66-66h331c36 0 67 30 67 66v498h19v-498c0-36 31-66 67-66h330c36 0 67 30 67 66v498h28v191h-31z m-436 173c0 22 17 38 39 38h331c22 0 38-16 38-38v-173h-408v173z m-483 0c0 22 16 38 39 38h330c22 0 39-16 39-38v-173h-408v173z m-25-337v137h455v-137h-455z m436-525c0-22-17-38-39-38h-331c-22 0-38 16-38 38v498h411v-498z m483 0c0-22-16-38-39-38h-330c-22 0-39 16-39 38v498h411v-498z m25 525h-455v137h455v-137z" horiz-adv-x="1000" />
<glyph glyph-name="icon-43-queen" unicode="&#xe82b;" d="m922 611v172c0 36-30 67-66 67h-712c-36 0-66-31-66-67v-172h-28v-192h28v-500c0-36 30-66 66-66h712c36 0 66 30 66 66v500h28v192h-28z m-816 172c0 23 16 39 38 39h712c22 0 41-19 41-41v-173h-791v175z m788-866c0-23-19-42-41-42h-709c-22 0-41 19-41 42v500h791v-500z m28 527h-844v139h844v-139z m-128 370h-227c-31 0-56-17-70-39-14 25-39 39-69 39h-228c-44 0-81-36-81-81v-33c0-44 37-81 81-81h228c30 0 55 17 69 39 14-25 39-39 70-39h227c45 0 81 37 81 81v33c0 45-36 81-81 81z m-650-114v33c0 20 9 36 23 45l11-11c11-14 16-34 16-50 0-17-5-36-16-50l-9-11 6-3c-17 8-31 25-31 47z m56-56c-3 0-3 0-6 0l3 6c14 19 20 42 20 64 0 22-6 47-20 64l-3 8c0 0 3 0 3 0h228c3 0 3 0 6 0l-3-5c-14-20-20-42-20-64 0-23 6-48 20-64l3-6c-3 0-3 0-6 0h-225z m281 56c0-19-12-36-28-47l5 3-8 11c-11 14-17 33-17 50 0 16 6 36 17 50l8 11c14-11 23-25 23-45v-33z m33 0v33c0 20 8 36 22 45l8-11c12-14 17-34 17-50 0-17-5-36-17-50l-8-11 6-3c-17 8-28 25-28 47z m53-56c-3 0-3 0-6 0l3 6c14 19 19 42 19 64 0 22-5 47-19 64l-3 5c0 0 3 0 3 0h228c2 0 2 0 5 0l-3-5c-13-20-19-42-19-64 0-22 6-47 19-64l3-6c-3 0-3 0-5 0h-225z m280 56c0-19-11-36-28-47l6 3-8 11c-11 14-17 33-17 50 0 16 6 36 17 50l8 11c14-11 22-25 22-45v-33z" horiz-adv-x="1000" />
<glyph glyph-name="icon-44-king" unicode="&#xe82c;" d="m950 611v172c0 36-31 67-67 67h-766c-36 0-67-31-67-67v-172h-28v-192h28v-500c0-36 31-66 67-66h764c36 0 66 30 66 66v500h28v192h-25z m-872 172c0 23 16 39 39 39h764c22 0 41-19 41-41v-173h-844v175z m844-866c0-23-19-42-41-42h-764c-23 0-42 19-42 42v500h844v-500z m28 527h-900v139h900v-139z m-550 370h-228c-44 0-80-36-80-81v-33c0-44 36-81 80-81h228c44 0 81 37 81 81v33c0 45-37 81-81 81z m-281-114v33c0 20 9 36 23 45l8-11c11-14 17-34 17-50 0-17-6-36-17-50l-8-11 5-3c-16 8-28 25-28 47z m53-56c-3 0-3 0-5 0l2 6c14 19 20 42 20 64 0 22-6 47-20 64l0 8c0 0 3 0 3 0h228c3 0 3 0 6 0l-3-5c-14-20-20-42-20-64 0-23 6-48 20-64l3-6c-3 0-3 0-6 0h-228z m284 56c0-19-12-36-28-47l3 3-9 11c-11 14-16 33-16 50 0 16 5 36 16 50l9 11c13-11 25-25 25-45v-33z m366 114h-228c-44 0-80-36-80-81v-33c0-44 36-81 80-81h228c45 0 81 37 81 81v33c0 45-36 81-81 81z m-283-114v33c0 20 8 36 22 45l8-11c12-14 17-34 17-50 0-17-5-36-17-50l-5-11 5-3c-16 8-30 25-30 47z m55-56c-2 0-2 0-5 0l3 6c14 19 19 42 19 64 0 22-5 47-19 64l-3 5c0 0 3 0 3 0h227c3 0 3 0 6 0l-3-5c-14-20-19-42-19-64 0-22 5-47 19-64l3-6c-3 0-3 0-6 0h-225z m281 56c0-19-11-36-28-47l6 3-9 11c-11 14-16 33-16 50 0 16 5 36 16 50l9 11c14-11 22-25 22-45v-33z" horiz-adv-x="1000" />
<glyph glyph-name="icon-45-cal-king" unicode="&#xe82d;" d="m972 608v173c0 36-30 66-66 66h-812c-38 0-66-30-66-66v-173h-28v-191h28v-498c0-36 30-66 66-66h812c36 0 66 30 66 66v498h28v191h-28z m-919 173c0 22 16 38 39 38h811c22 0 39-16 39-38v-173h-889v173z m894-862c0-22-16-38-39-38h-814c-22 0-38 16-38 38v498h891v-498z m25 525h-944v137h944v-137z m-597 367h-228c-44 0-80-36-80-80v-34c0-44 36-80 80-80h228c44 0 81 36 81 80v34c0 44-37 80-81 80z m-281-114v34c0 19 9 33 23 44l8-11c11-14 14-31 14-50 0-17-6-36-14-50l-8-11 5-3c-16 8-28 25-28 47z m53-53c-3 0-3 0-5 0l2 6c17 19 23 42 23 64 0 22-6 44-20 64l-3 5c0 0 3 0 3 0h228c3 0 3 0 6 0l-3-5c-14-20-20-42-20-64 0-22 6-45 20-64l3-6c-3 0-3 0-6 0h-228z m281 53c0-19-11-36-28-47l3 3-9 11c-11 14-13 30-13 50 0 17 5 36 13 50l9 11c14-8 22-25 22-44v-34z m419 114h-228c-44 0-80-36-80-80v-34c0-44 36-80 80-80h228c45 0 81 36 81 80v34c0 44-36 80-81 80z m-280-114v34c0 19 8 33 22 44l8-11c9-14 14-31 14-50 0-17-5-36-14-50l-8-11 5-3c-16 8-27 25-27 47z m52-53c-2 0-2 0-5 0l3 6c16 19 22 42 22 64 0 22-6 44-20 64l-2 5c0 0 2 0 2 0h228c3 0 3 0 6 0l-3-5c-14-20-19-42-19-64 0-22 5-45 19-64l3-6c-3 0-3 0-6 0h-228z m281 53c0-19-11-36-28-47l3 3-8 11c-11 14-14 30-14 50 0 17 5 36 14 50l8 11c14-8 22-25 22-44v-34z" horiz-adv-x="1000" />
<glyph glyph-name="icon-46-couch" unicode="&#xe82e;" d="m239 436c25 0 44 20 44 45 0 25-19 44-44 44-25 0-45-19-45-44-2-25 20-45 45-45z m0 64c11 0 17-8 17-17 0-11-9-16-17-16-11 0-17 8-17 16-3 9 6 17 17 17z m261-64c25 0 44 20 44 45 0 25-19 44-44 44-25 0-44-19-44-44 0-25 19-45 44-45z m0 64c11 0 17-8 17-17 0-11-9-16-17-16-11 0-17 8-17 16 0 9 6 17 17 17z m258-64c25 0 45 20 45 45 0 25-20 44-45 44-25 0-44-19-44-44 0-25 19-45 44-45z m0 64c11 0 17-8 17-17 0-11-8-16-17-16-11 0-16 8-16 16-3 9 5 17 16 17z m178-19v47c0 53-44 97-97 97h-183-28-278-28-166c-53 0-98-44-98-97v-47c-30-12-58-45-58-84 0-33 19-64 47-78v-180c0-36 28-64 64-64s64 28 64 64v25h653v-25c0-36 28-64 64-64s64 28 64 64v180c27 14 47 45 47 78-3 39-31 72-67 84z m-97 116c39 0 69-30 69-69v-42c-2 0-5 0-8 0-3 0-6 0-8 0-3 0-6-3-9-3-2 0-5-2-8-2-3 0-6-3-8-6-3 0-6-3-6-3-3-3-5-3-5-5-3-3-3-3-6-6-3-3-3-5-6-5-2-3-2-3-5-6-3-3-3-6-3-6 0-8-3-11-3-13 0-3-2-6-2-9 0-3-3-5-3-8 0-3 0-3 0-6 0-2 0-8 0-11v-16c-6 2-11 2-17 2h-150v214h178z m-664-255c0 8 8 16 17 16h136v-100h-153v84z m178 16h278v-100h-278v100z m305 0h150c9 0 17-8 17-16v-84h-167v100z m-27 239v-211h-278v211h278z m-542-69c0 39 30 69 69 69h167v-211h-133c-6 0-11 0-17-3v17c0 6 0 11-3 17 0 2 0 2-3 5 0 3-2 9-2 11 0 3-3 3-3 6-3 3-3 5-6 8 0 3-2 3-5 6-3 3-3 5-6 8 0 0-3 0-3 3-2 3-5 3-8 5-3 3-5 3-5 3-3 3-6 3-9 6-3 0-5 3-8 3-3 0-6 2-8 2-3 0-6 0-9 0-3 0-5 0-8 0v45z m844-186l-8-3v-200c0-20-17-36-36-36s-36 16-36 36v50h-706v-50c0-20-16-36-36-36s-36 16-36 36v200l-8 3c-25 8-39 30-39 55 0 28 19 53 47 59l6 0c0 0 0 0 0 0 2 0 8 0 11 0 0 0 2 0 2 0 3 0 6 0 9-3 0 0 3 0 3 0 2 0 5-3 11-6 0 0 0 0 0 0 14-8 25-22 27-39 0 0 0 0 0 0 0-2 3-8 3-14v-55-108h181 28 277 28 195 0 0v166c0 28 19 53 47 59 3 0 8 0 11 0 3 0 5 0 8 0 0 0 0 0 0 0l6 0c28-6 47-31 47-59-3-25-17-47-42-55z" horiz-adv-x="1000" />
<glyph glyph-name="icon-47-sofa-bed" unicode="&#xe82f;" d="m239 567c25 0 44 19 44 44 0 25-19 45-44 45s-47-20-47-45c0-25 22-44 47-44z m0 64c11 0 17-9 17-17 0-11-9-17-17-17-11 0-17 9-17 17-3 8 6 17 17 17z m261 27c-25 0-44-19-44-44 0-25 19-45 44-45 25 0 44 20 44 45 0 22-19 44-44 44z m0-64c-11 0-17 9-17 17 0 11 9 17 17 17 11 0 17-9 17-17 0-8-6-17-17-17z m258-27c25 0 45 19 45 44 0 25-20 45-45 45-25 0-44-20-44-45 0-25 19-44 44-44z m0 64c11 0 17-9 17-17 0-11-8-17-17-17-11 0-16 9-16 17-3 8 5 17 16 17z m195-306v128c28 14 47 44 47 78 0 38-28 72-64 83v44c0 53-44 98-97 98h-678c-55 0-97-45-97-98v-47c-36-11-64-44-64-83 0-34 19-64 47-78v-128c0-25 17-47 39-58l-44-147h-3v-11l-6-17h6v-72h55v-11c0-37 28-64 64-64s64 27 64 64v11h575v-11c0-37 28-64 64-64 36 0 64 27 64 64v11h39v72h5l-5 17v11h-3l-47 150c22 8 39 30 39 58z m-42 333v-41c-3 0-5 0-8 0-3 0-6 0-9 0-2 0-5-3-8-3-3 0-5-3-8-3-3 0-6-3-9-5-2 0-5-3-5-3-3-3-6-3-8-6-3-3-3-3-6-5-3-3-3-6-6-9-2-2-2-2-5-5-3-3-3-6-6-9 0-2-2-2-2-5-3-3-3-8-3-11 0-3 0-3-3-6 0-5-3-11-3-16v-17c-5 3-11 3-16 3h-150v211h183c39 0 72-31 72-70z m-736-186c0 9 8 17 17 17h616c9 0 17-8 17-17l0-3v-25h-650v28z m178 45v211h278v-211h-278z m-264 141c0 39 30 70 69 70h167v-211h-133c-6 0-11 0-17-3v17c0 5 0 11-3 16 0 3 0 3-3 6 0 3-2 8-2 11 0 3-3 3-3 5-3 3-3 6-6 9 0 3-2 3-5 5 0 0-3 3-3 6-3 3-6 3-6 5-2 3-5 3-8 6-3 0-3 3-5 3-3 3-6 3-9 5-3 0-5 3-8 3-3 0-6 0-8 3-3 0-6 0-9 0-3 0-5 0-8 0v44z m5-366c-11 5-19 16-19 30v145l-8 2c-25 9-39 31-39 56 0 28 19 53 47 58l6 0c2 0 5 0 8 0 33 0 61-27 61-61v-55l-11-36-45-139z m98-284c0-19-17-36-36-36-20 0-37 17-37 36v11h73v-11z m702 0c0-19-16-36-36-36s-36 17-36 36v11h72v-11z m39 36h-14-125-575-125-27v48h866v-48z m-864 75l89 298h684l47-156 0 0 42-142h-862z m856 350v-144c0-14-8-25-19-31l-28 95-25 83v59c0 33 28 61 61 61 3 0 5 0 8 0 0 0 0 0 0 0l6 0c28-6 47-31 47-59 0-25-14-47-39-55l-11-9z" horiz-adv-x="1000" />
<glyph glyph-name="icon-50-check-out" unicode="&#xe830;" d="m244 258h62v-61h-62v61z m112-61h61v61h-61v-61z m111 0h61v61h-61v-61z m-336-103h61v62h-61v-62z m113 0h62v62h-62v-62z m112 0h61v62h-61v-62z m111 0h61v62h-61v-62z m-336-105h61v61h-61v-61z m113 0h62v61h-62v-61z m112 0h61v61h-61v-61z m644 547c0-172-142-314-314-314-8 0-19 0-28 3v-347c0-14-11-25-25-25h-608c-14-3-25 8-25 22v544c0 14 11 25 25 25h131v48c0 8 5 14 13 14 9 0 14-6 14-14v-48h131v48c0 8 5 14 14 14s14-6 14-14v-48h41c-8 28-14 59-14 89 0 175 142 317 317 317 172 0 314-142 314-314z m-369-311c-25 6-50 11-75 22-3 0-3 3-6 3-8 6-17 8-28 14-3 3-5 3-8 5-8 6-17 12-25 20 0 0-3 3-3 3-8 8-17 16-25 25-3 2-3 5-5 5-6 9-12 14-20 22-3 3-3 6-5 9-14 19-28 41-37 66h-50v-91c0-9-5-14-13-14s-14 5-14 14v91h-134v-91c0-9-5-14-14-14-8 0-13 5-13 14v91h-131l0-544 603 0v350z m341 311c0 158-128 286-286 286s-289-128-289-286c0-36 6-67 17-100 8-25 22-47 36-67 0-2 3-2 3-5 5-8 14-17 19-22 3-3 3-3 6-6 8-8 16-17 25-25 0 0 3 0 3-3 8-5 16-14 25-19 2 0 2-3 5-3 31-19 67-30 106-36 0 0 2 0 2 0l12 0v0c8 0 19-3 27-3 161 0 289 131 289 289z m-175 120c-3 0-3 0-5 0h-139c-9 0-14-6-14-14s5-14 14-14h108l-192-192c-5-5-5-14 0-19 3-3 6-3 9-3 3 0 5 0 8 3l192 191v-108c0-8 5-14 14-14s14 6 14 14v139c0 3 0 3 0 5-3 9-6 9-9 12z" horiz-adv-x="1000" />
<glyph glyph-name="icon-49-check-in" unicode="&#xe831;" d="m586 258h61v-61h-61v61z m111-61h61v61h-61v-61z m111 0h61v61h-61v-61z m-333-103h61v62h-61v-62z m111 0h61v62h-61v-62z m111 0h61v62h-61v-62z m111 0h61v62h-61v-62z m-333-105h61v61h-61v-61z m111 0h61v61h-61v-61z m111 0h61v61h-61v-61z m-269 428c3 0 5 2 8 8 0 3 0 3 0 6v138c0 9-5 14-14 14s-14-5-14-14v-108l-191 192c-6 5-14 5-20 0-3-6-3-14 0-20l192-191h-108c-9 0-14-6-14-14s5-14 14-14h138c6 0 9 0 9 3z m572 2v-544c0-14-11-25-25-25h-606c-13 0-25 11-25 25v347c-8 0-16 0-27 0-175 0-317 139-317 314 0 172 142 314 317 314 172 0 314-142 314-314 0-30-6-61-14-89h39v47c0 9 5 14 13 14s14-5 14-14v-47h131v47c0 9 5 14 14 14 8 0 14-5 14-14v-47h130c14 0 28-14 28-28z m-683-172c8 0 19 0 27 3l9 0c0 0 3 0 3 0 13 3 25 6 36 8 0 0 0 0 2 0 25 6 48 17 67 28 3 3 6 3 8 6 9 5 17 11 25 16 3 0 3 3 6 3 8 8 17 14 25 22 3 3 3 6 6 6 5 8 13 14 19 22 0 3 3 3 3 6 14 19 25 41 36 66 11 31 17 64 17 100-3 161-131 289-289 289s-289-128-289-286 130-289 289-289z m655 172l-130 0v-91c0-9-6-14-14-14-9 0-14 5-14 14v91l-131 0v-91c0-9-5-14-14-14s-13 5-13 14v91l-50 0c-9-25-23-47-37-66-2-3-2-6-5-9-6-8-11-13-17-19-3-3-5-6-8-8-8-9-17-17-25-25-3-3-6-3-6-6-8-5-14-11-22-17-3-2-5-2-8-5-9-6-17-8-25-14-3 0-6-3-6-3-22-11-47-19-75-22 0 0 0 0 0 0v-350l600 3v541z" horiz-adv-x="1000" />
<glyph glyph-name="icon-48-folding-bed" unicode="&#xe832;" d="m758 533h-33v186c0 9-6 14-14 14-8 0-14-5-14-14v-186h-22v253c0 36-28 64-64 64h-64c-19 0-39-11-50-25-8 14-28 25-47 25h-64c-36 0-64-28-64-64v-253h-22v186c0 9-6 14-14 14-8 0-14-5-14-14v-186h-30c-9 0-14-5-14-14 0-8 5-13 14-13h33v-489c0-36 28-64 64-64h61l-81-81c-5-5-5-14 0-16 3-3 6-3 9-3s5 0 8 3l33 33h267l33-33c3-3 6-3 9-3 3 0 5 0 8 3 6 5 6 13 0 16l-80 81h61c36 0 64 28 64 64v491h33c8 0 14 6 14 14-9 6-14 11-20 11z m-208 292h64c22 0 39-17 39-39v-253h-139v253c0 22 17 39 36 39z m103-622v-136c0-23-17-39-39-39h-64c-22 0-39 16-39 39v441h139v-305z m-306 0v305h139v-441c0-23-17-39-39-39h-64c-22 0-39 16-39 39v136z m153-172c0 0 0-3 0 0l0 0c0-3 0 0 0 0z m-153 755c0 22 17 39 39 39h64c22 0 39-17 39-39v-253h-139v253z m222-836l39-39h-216l39 39c0 0 0 3 2 3h136c0 0 0-3 0-3z m131 67c0-23-17-39-39-39h-325c-22 0-39 16-39 39v491h22v-305-136c0-36 28-64 64-64h64 100 64c36 0 64 28 64 64v136 305h22v-491z" horiz-adv-x="1000" />
</font>
</defs>
</svg>
